<?xml version="1.0" encoding="utf-8"?>
<!-- Generator: Adobe Illustrator 25.4.1, SVG Export Plug-In . SVG Version: 6.00 Build 0)  -->
<svg version="1.1" id="Capa_1" xmlns="http://www.w3.org/2000/svg" xmlns:xlink="http://www.w3.org/1999/xlink" x="0px" y="0px"
	 viewBox="0 0 298 42" style="enable-background:new 0 0 298 42;" xml:space="preserve">
<style type="text/css">
	.st0{fill:#FFFFFF;}
	.st1{fill:#007AEB;}
	.st2{fill:#00BBFF;}
	.st3{fill:#005CB0;}
	.st4{fill:#008CBF;}
</style>
<g>
	<g>
		<polygon class="st0" points="58.5,20.3 50.2,7.7 47.3,7.7 47.3,31.4 50.2,31.4 50.2,12.7 58,24.5 59.2,24.5 66.9,12.7 66.9,31.4 
			69.8,31.4 69.8,7.7 66.7,7.7 		"/>
		<path class="st0" d="M87.3,16.5c-1.4-1.5-3.5-2.4-5.9-2.4c-4.9,0-8.7,3.7-8.7,8.7s3.7,8.8,8.7,8.8c2.3,0,4.4-0.9,5.9-2.5v2.2H90
			v-17h-2.7V16.5z M81.4,28.9c-3.4,0-5.9-2.6-5.9-6.1s2.5-6,5.9-6c4.2,0,6.1,3.1,6.1,6.1C87.4,25.8,85.5,28.9,81.4,28.9z"/>
		<path class="st0" d="M100.5,14.1c-1.9,0-3.6,0.6-4.7,1.8v-1.6h-2.6v17.1h2.7v-9.8c0-2.6,2-4.7,4.7-4.7c0.9,0,1.7,0.2,2.4,0.7
			l0.5,0.3l1.3-2.3l-0.5-0.3C103.1,14.4,101.8,14.1,100.5,14.1z"/>
		<polygon class="st0" points="117.8,15.4 118,15.1 118,14.3 115.1,14.3 108.4,20.5 108.4,7.7 105.7,7.7 105.7,31.4 108.4,31.4 
			108.4,24.3 116.2,31.4 118.4,31.4 119,31.3 119,30.4 110.3,22.4 		"/>
		<path class="st0" d="M147.6,28.4c-0.8,0.4-1.6,0.6-2.2,0.6c-1.8,0-2.3-0.7-2.3-3.1v-9.1h5.4v-2.5H143V9.4l-2.7,0.3v4.6H137v2.5
			h3.4v9.1c0,3.8,1.7,5.7,5.1,5.7c1,0,2-0.3,3.2-0.9l0.5-0.2l-1-2.4L147.6,28.4z"/>
		<rect x="150.9" y="14.2" class="st0" width="2.7" height="17.1"/>
		<path class="st0" d="M164.8,14c-2,0-3.8,0.7-5.1,2v-1.7H157v17.1h2.7V22c0-3,2.1-5.2,5-5.2c1.6,0,2.9,0.4,3.8,1.3
			c0.9,0.8,1.3,2.1,1.3,3.6v9.7h2.7v-9.8C172.5,17,169.5,14,164.8,14z"/>
		<path class="st0" d="M187.3,29c2.2-1.4,3.5-4,3.5-6.7c0-2.2-0.6-3.9-1.8-5.4l1.6-1.9l-1.9-1.7l-1.6,1.9c-1.3-0.8-2.9-1.3-4.4-1.3
			c-4.7,0-8,3.4-8,8.3c0,4.8,3.4,8.3,8,8.3c2.6,0,5.4,1.1,5.4,4.2c0,3.9-4.2,4.2-5.4,4.2c-2.6,0-5.4-1.1-5.4-4.2v-0.6h-2.7v0.6
			c0,4.1,3.3,6.9,8.1,6.9c5,0,8.1-2.7,8.1-6.9C190.9,32.2,189.7,30.2,187.3,29z M188.2,22.3c0,3-2.5,5.5-5.4,5.5
			c-3.5,0-5.3-2.8-5.3-5.5c0-4.1,2.7-5.6,5.3-5.6C186.1,16.7,188.2,18.9,188.2,22.3z"/>
		<path class="st0" d="M133.9,22.8v0.3c-0.1,2.1-1.2,4-3,5.1c-2.5,1.5-5.7,0.9-7.6-1.2l12.7-7.3l-0.2-0.5c-0.1-0.2-0.2-0.5-0.4-0.7
			c-1.2-2-3.1-3.5-5.3-4.1c-2.3-0.6-4.6-0.3-6.7,0.9c-2,1.2-3.5,3.1-4.1,5.3c-0.6,2.3-0.3,4.6,0.9,6.7c1.6,2.8,4.6,4.4,7.6,4.4
			c1.5,0,3-0.4,4.4-1.2c2.9-1.7,4.6-4.8,4.4-8.2l-0.1-0.9L133.9,22.8z M132.4,18.7l-10.4,6c-0.9-2.8,0.2-5.8,2.8-7.3
			C127.3,16,130.5,16.5,132.4,18.7z"/>
		<path class="st0" d="M241.5,22.8v0.3c-0.1,2.1-1.2,4-3,5.1c-2.5,1.5-5.7,0.9-7.6-1.2l12.7-7.3l-0.2-0.5c-0.1-0.2-0.2-0.5-0.4-0.7
			c-1.2-2-3.1-3.5-5.3-4.1c-2.3-0.6-4.6-0.3-6.7,0.9c-2,1.2-3.5,3.1-4.1,5.3c-0.6,2.3-0.3,4.6,0.9,6.7c1.6,2.8,4.6,4.4,7.6,4.4
			c1.5,0,3-0.4,4.4-1.2c2.9-1.7,4.6-4.8,4.4-8.2l-0.1-0.9L241.5,22.8z M239.9,18.7l-10.4,6c-0.9-2.8,0.2-5.8,2.8-7.3
			c1-0.6,2-0.8,3.1-0.8C237.1,16.6,238.7,17.4,239.9,18.7z"/>
		<polygon class="st0" points="212.9,20.1 204.6,7.4 201.7,7.4 201.7,31.1 204.6,31.1 204.6,12.5 212.4,24.3 213.6,24.3 221.3,12.5 
			221.3,31.1 224.2,31.1 224.2,7.4 221.2,7.4 		"/>
		<path class="st0" d="M260.5,16.2c-1.4-1.6-3.5-2.4-6-2.4c-5.1,0-8.6,3.5-8.6,8.8s3.4,8.8,8.5,8.8c2.4,0,4.5-0.9,6-2.6v2.3h2.7V7.4
			h-2.7v8.8H260.5z M260.4,22.6c0,3.6-2.4,6.1-5.9,6.1c-2.9,0-5.9-1.6-5.9-6.1s3.1-6.1,5.9-6.1C258,16.5,260.4,19,260.4,22.6z"/>
		<path class="st0" d="M266.1,9.5c0,1.2,0.9,1.8,1.9,1.8c0.9,0,1.9-0.6,1.9-1.8C269.8,7.1,266.1,7.1,266.1,9.5z"/>
		<rect x="266.6" y="14" class="st0" width="2.7" height="17.1"/>
		<path class="st0" d="M150.4,9.5c0,0.6,0.2,1,0.6,1.4c0.3,0.3,0.8,0.5,1.3,0.5c0.9,0,1.9-0.6,1.9-1.8
			C154.1,7.1,150.4,7.1,150.4,9.5z"/>
		<path class="st0" d="M286.3,14.1v2.2c-1.4-1.5-3.5-2.4-5.9-2.4c-4.9,0-8.7,3.8-8.7,8.7c0,5,3.7,8.8,8.7,8.8c2.3,0,4.4-0.9,5.9-2.5
			v2.2h2.7v-17H286.3z M280.4,28.7c-3.4,0-5.9-2.6-5.9-6.1s2.5-6,5.9-6c4.2,0,6.1,3.1,6.1,6.1C286.5,25.5,284.6,28.7,280.4,28.7z"/>
	</g>
	<g>
		<g>
			<g>
				<polygon class="st1" points="34.2,14.6 18.7,30.2 18.7,30.2 18.8,30.2 10.4,21.6 0,32.2 0,38.8 37.3,38.8 37.3,17.9 				"/>
				<polygon class="st2" points="10.1,13.3 19,22 33.8,6.3 36.4,9.6 36.4,0.3 0,0.3 0,23.9 				"/>
			</g>
			<polygon class="st3" points="18.8,30.2 10.2,38.9 16.1,27.5 			"/>
			<polygon class="st4" points="10,13.3 22.8,0.7 13,16.2 			"/>
			<polygon class="st4" points="36.4,3.1 33.8,6.3 35.1,8 36.4,5.4 			"/>
		</g>
	</g>
</g>
</svg>
