<?xml version="1.0" encoding="utf-8"?>
<!-- Generator: Adobe Illustrator 25.4.1, SVG Export Plug-In . SVG Version: 6.00 Build 0)  -->
<svg version="1.1" id="Layer_1" xmlns="http://www.w3.org/2000/svg" xmlns:xlink="http://www.w3.org/1999/xlink" x="0px" y="0px"
	 viewBox="0 0 202.9 35.9" style="enable-background:new 0 0 202.9 35.9;" xml:space="preserve">
<style type="text/css">
	.st0{fill:#288FEB;}
	.st1{fill:#35B863;}
	.st2{fill:#FFFFFF;}
</style>
<g>
	<script  xmlns=""></script>
	<g id="DEAlYJ_00000127748889212677219970000010831806185532238227_">
		<g>
			<g>
				<path class="st0" d="M34,3.8c-0.8,0.4-1.6,0.8-2.3,1.2c-1.5,0.8-3.1,1.6-4.6,2.3c-0.3,0.1-0.4,0.2-0.4-0.2c0-0.3,0-0.7,0-1
					s-0.1-0.4-0.3-0.3c-2.3,0-4.3,0.8-6.1,2.3c-1.8,1.6-2.9,3.5-3.3,5.9c0,0.2-0.1,0.3-0.3,0.4c-1,0.5-2,1-3,1.6
					c-0.2,0.1-0.4,0.1-0.6,0c-3.9-1.6-8.3,0.6-9.2,4.7s2.2,8.2,6.5,8.2c4,0,8,0,12,0c0.1,0,0.2,0,0.4,0c0,0,0,0,0,0.1
					c-1.2,0.6-2.4,1.3-3.7,1.9c1.2,0.6,2.4,1.2,3.6,1.8c0,0,0,0,0,0.1c-0.1,0-0.2,0-0.3,0c-3.9,0-7.9,0-11.8,0
					C5.1,32.8,0.4,28.6,0,23c-0.5-5.5,3.4-10.5,8.9-11.4c1.4-0.2,2.9-0.2,4.3,0.2c0.3,0.1,0.5,0.1,0.6-0.3c1.6-5,5-8.2,10.2-9.4
					c0.9-0.2,1.7-0.3,2.6-0.3c0.3,0,0.4-0.1,0.4-0.4C27,1,27,0.5,27,0C29.2,1.3,31.6,2.5,34,3.8z"/>
				<path class="st1" d="M31.5,8.1c1.2-0.6,2.4-1.2,3.5-1.8c0.2-0.1,0.3,0,0.4,0.2c1.3,1.5,2.2,3.2,2.8,5.1c0.1,0.3,0.2,0.4,0.5,0.3
					c7.1-1.9,13.9,4,13.2,11.3c-0.5,5.4-5.1,9.6-10.5,9.6c-2.9,0-5.8,0-8.8,0c-0.4,0-0.5,0.1-0.4,0.5c0,0.4,0,0.8,0,1.3
					c-2.4-1.2-4.8-2.5-7.3-3.7c2.4-1.2,4.8-2.5,7.3-3.7c0,0.5,0,1,0,1.5c0,0.2,0.1,0.3,0.3,0.3c3.1,0,6.1,0.1,9.2,0
					c3.4-0.1,6.2-2.9,6.4-6.2c0.2-3.5-2.1-6.5-5.6-7.2c-1.3-0.2-2.6-0.1-3.8,0.5c-0.2,0.1-0.4,0.1-0.6,0c-0.9-0.5-1.8-1-2.8-1.4
					c-0.3-0.2-0.5-0.4-0.6-0.8c-0.3-2.1-1.3-3.9-2.9-5.4C31.7,8.2,31.6,8.2,31.5,8.1z"/>
			</g>
		</g>
		<g>
			<path class="st2" d="M58.9,15.5L64,28.3l5.1-12.8h2.7v15.7h-2v-6.1l0.2-6.6l-5.2,12.7h-1.6l-5.1-12.7l0.2,6.6v6.1h-2.1V15.5H58.9
				z"/>
			<path class="st2" d="M74.7,25.3c0-1.1,0.2-2.2,0.7-3.1c0.4-0.9,1.1-1.6,1.9-2.1s1.7-0.7,2.7-0.7c1.6,0,2.9,0.5,3.9,1.6
				s1.5,2.6,1.5,4.4v0.1c0,1.1-0.2,2.2-0.7,3.1c-0.4,0.9-1.1,1.6-1.9,2.1s-1.7,0.8-2.8,0.8c-1.6,0-2.9-0.5-3.8-1.6
				c-1-1.1-1.5-2.6-1.5-4.4C74.7,25.5,74.7,25.3,74.7,25.3z M76.7,25.5c0,1.3,0.3,2.3,0.9,3.1c0.6,0.8,1.4,1.2,2.4,1.2
				s1.8-0.4,2.4-1.2c0.6-0.8,0.9-1.9,0.9-3.3c0-1.3-0.3-2.3-0.9-3.1C81.8,21.4,81,21,80,21s-1.8,0.4-2.4,1.2
				C77,22.9,76.7,24.1,76.7,25.5z"/>
			<path class="st2" d="M89.7,19.6l0.1,1.5c0.9-1.1,2.1-1.7,3.5-1.7c2.5,0,3.7,1.4,3.7,4.2v7.6h-2v-7.7c0-0.8-0.2-1.5-0.6-1.9
				s-1-0.6-1.8-0.6c-0.6,0-1.2,0.2-1.7,0.5s-0.9,0.8-1.1,1.4v8.3h-2V19.6H89.7z"/>
			<path class="st2" d="M112.6,31.2h-3.2v-6.7h-6.3v6.7h-3.3V15.5h3.2v6.4h6.3v-6.4h3.2v15.7H112.6z"/>
			<path class="st2" d="M120.6,31.4c-1.7,0-3.1-0.5-4.2-1.6c-1.1-1-1.6-2.4-1.6-4.2v-0.3c0-1.2,0.2-2.2,0.7-3.1s1.1-1.6,1.9-2.1
				s1.8-0.7,2.8-0.7c1.6,0,2.8,0.5,3.8,1.5c0.9,1,1.4,2.4,1.4,4.3v1.3H118c0.1,0.8,0.4,1.4,0.9,1.8c0.5,0.5,1.1,0.7,1.9,0.7
				c1.2,0,2.1-0.4,2.8-1.3l1.5,1.7c-0.5,0.7-1.1,1.2-1.9,1.5C122.4,31.3,121.6,31.4,120.6,31.4z M120.2,21.9c-0.6,0-1.1,0.2-1.5,0.6
				s-0.6,1-0.7,1.8h4.3v-0.2c0-0.7-0.2-1.2-0.6-1.6C121.4,22.1,120.9,21.9,120.2,21.9z M120.5,14.7h3.4l-3,3.3h-2.5L120.5,14.7z"/>
			<path class="st2" d="M137.6,25.5c0,1.9-0.4,3.3-1.2,4.4c-0.8,1-1.9,1.6-3.3,1.6c-1.3,0-2.3-0.5-3-1.5l-0.1,1.2h-2.8V14.7h3.1v5.9
				c0.7-0.8,1.7-1.3,2.8-1.3c1.4,0,2.5,0.5,3.3,1.6c0.8,1,1.2,2.5,1.2,4.4V25.5z M134.5,25.3c0-1.2-0.2-2-0.6-2.6
				c-0.4-0.5-0.9-0.8-1.7-0.8c-1,0-1.7,0.4-2,1.2v4.6c0.4,0.8,1.1,1.2,2.1,1.2s1.7-0.5,2-1.5C134.5,27,134.5,26.2,134.5,25.3z"/>
			<path class="st2" d="M144.9,31.4c-1.7,0-3.1-0.5-4.2-1.6c-1.1-1-1.6-2.4-1.6-4.2v-0.3c0-1.2,0.2-2.2,0.7-3.1s1.1-1.6,1.9-2.1
				c0.8-0.5,1.8-0.7,2.8-0.7c1.6,0,2.8,0.5,3.8,1.5c0.9,1,1.4,2.4,1.4,4.3v1.3h-7.4c0.1,0.8,0.4,1.4,0.9,1.8
				c0.5,0.5,1.1,0.7,1.9,0.7c1.2,0,2.1-0.4,2.8-1.3l1.5,1.7c-0.5,0.7-1.1,1.2-1.9,1.5C146.8,31.3,145.9,31.4,144.9,31.4z
				 M144.6,21.9c-0.6,0-1.1,0.2-1.5,0.6s-0.6,1-0.7,1.8h4.3v-0.2c0-0.7-0.2-1.2-0.6-1.6S145.2,21.9,144.6,21.9z"/>
			<path class="st2" d="M158,22.5c-0.4-0.1-0.8-0.1-1.1-0.1c-1.2,0-2,0.4-2.3,1.2v7.6h-3.1V19.6h2.9l0.1,1.4
				c0.6-1.1,1.5-1.6,2.6-1.6c0.3,0,0.7,0,1,0.1L158,22.5z"/>
			<path class="st2" d="M158.9,25.3c0-1.8,0.4-3.2,1.3-4.3c0.9-1.1,2-1.6,3.4-1.6c1.3,0,2.3,0.4,3,1.3l0.1-1.1h2.8v11.3
				c0,1-0.2,1.9-0.7,2.7s-1.1,1.3-2,1.7c-0.8,0.4-1.8,0.6-3,0.6c-0.9,0-1.7-0.2-2.5-0.5s-1.4-0.8-1.8-1.3l1.4-1.9
				c0.8,0.9,1.7,1.3,2.8,1.3c0.8,0,1.5-0.2,1.9-0.7c0.5-0.4,0.7-1.1,0.7-1.9v-0.7c-0.7,0.8-1.7,1.2-2.8,1.2c-1.4,0-2.5-0.5-3.4-1.6
				s-1.3-2.5-1.3-4.4v-0.1H158.9z M162,25.5c0,1.1,0.2,1.9,0.6,2.5s1,0.9,1.7,0.9c0.9,0,1.6-0.4,2-1.1v-4.9c-0.4-0.7-1.1-1.1-2-1.1
				c-0.7,0-1.3,0.3-1.8,0.9C162.2,23.4,162,24.3,162,25.5z"/>
			<path class="st2" d="M177.3,31.4c-1.7,0-3.1-0.5-4.2-1.6c-1.1-1-1.6-2.4-1.6-4.2v-0.3c0-1.2,0.2-2.2,0.7-3.1s1.1-1.6,1.9-2.1
				c0.8-0.5,1.8-0.7,2.8-0.7c1.6,0,2.8,0.5,3.8,1.5c0.9,1,1.4,2.4,1.4,4.3v1.3h-7.4c0.1,0.8,0.4,1.4,0.9,1.8
				c0.5,0.5,1.1,0.7,1.9,0.7c1.2,0,2.1-0.4,2.8-1.3l1.5,1.7c-0.5,0.7-1.1,1.2-1.9,1.5C179.2,31.3,178.3,31.4,177.3,31.4z
				 M176.9,21.9c-0.6,0-1.1,0.2-1.5,0.6s-0.6,1-0.7,1.8h4.3v-0.2c0-0.7-0.2-1.2-0.6-1.6C178.1,22.1,177.6,21.9,176.9,21.9z"/>
			<path class="st2" d="M190.8,30c-0.8,0.9-1.8,1.4-3.2,1.4c-1.2,0-2.2-0.4-2.9-1.1s-1-1.8-1-3.2v-7.6h3.1V27c0,1.2,0.6,1.8,1.7,1.8
				c1.1,0,1.8-0.4,2.2-1.1v-8.3h3.1v11.8h-2.9L190.8,30z"/>
			<path class="st2" d="M202.8,22.5c-0.4-0.1-0.8-0.1-1.1-0.1c-1.2,0-2,0.4-2.3,1.2v7.6h-3.1V19.6h2.9l0.1,1.4
				c0.6-1.1,1.5-1.6,2.6-1.6c0.3,0,0.7,0,1,0.1L202.8,22.5z"/>
		</g>
	</g>
</g>
</svg>
