<svg width="124" height="124" viewBox="0 0 124 124" fill="none" xmlns="http://www.w3.org/2000/svg">
<rect x="2" width="120.978" height="81.2537" rx="5.42857" fill="#EAEAEA"/>
<circle cx="15.4778" cy="22.957" r="3.67576" fill="white"/>
<rect x="25.2798" y="20.5068" width="49.0102" height="4.90102" fill="white"/>
<rect x="79.191" y="20.5068" width="22.0546" height="4.90102" fill="white"/>
<mask id="mask0_1809_4958" style="mask-type:alpha" maskUnits="userSpaceOnUse" x="103" y="18" width="11" height="10">
<rect x="103.696" y="18.0562" width="9.80204" height="9.80204" fill="#D9D9D9"/>
</mask>
<g mask="url(#mask0_1809_4958)">
<path d="M108.025 23.6924L107.147 22.8143C107.072 22.7394 106.977 22.702 106.861 22.702C106.746 22.702 106.65 22.7394 106.576 22.8143C106.501 22.8892 106.463 22.9845 106.463 23.1002C106.463 23.2159 106.501 23.3112 106.576 23.3861L107.74 24.5501C107.821 24.6317 107.916 24.6726 108.025 24.6726C108.134 24.6726 108.23 24.6317 108.311 24.5501L110.619 22.2425C110.694 22.1676 110.731 22.0723 110.731 21.9566C110.731 21.8409 110.694 21.7456 110.619 21.6707C110.544 21.5958 110.449 21.5584 110.333 21.5584C110.217 21.5584 110.122 21.5958 110.047 21.6707L108.025 23.6924ZM108.597 27.0414C108.032 27.0414 107.501 26.9342 107.004 26.7198C106.507 26.5054 106.075 26.2144 105.708 25.8468C105.34 25.4792 105.049 25.047 104.835 24.5501C104.62 24.0532 104.513 23.5222 104.513 22.9572C104.513 22.3923 104.62 21.8613 104.835 21.3644C105.049 20.8675 105.34 20.4352 105.708 20.0677C106.075 19.7001 106.507 19.4091 107.004 19.1947C107.501 18.9803 108.032 18.873 108.597 18.873C109.162 18.873 109.693 18.9803 110.19 19.1947C110.687 19.4091 111.119 19.7001 111.487 20.0677C111.854 20.4352 112.145 20.8675 112.36 21.3644C112.574 21.8613 112.681 22.3923 112.681 22.9572C112.681 23.5222 112.574 24.0532 112.36 24.5501C112.145 25.047 111.854 25.4792 111.487 25.8468C111.119 26.2144 110.687 26.5054 110.19 26.7198C109.693 26.9342 109.162 27.0414 108.597 27.0414ZM108.597 26.2246C109.509 26.2246 110.282 25.9081 110.915 25.275C111.548 24.642 111.865 23.8694 111.865 22.9572C111.865 22.0451 111.548 21.2725 110.915 20.6395C110.282 20.0064 109.509 19.6899 108.597 19.6899C107.685 19.6899 106.912 20.0064 106.279 20.6395C105.646 21.2725 105.33 22.0451 105.33 22.9572C105.33 23.8694 105.646 24.642 106.279 25.275C106.912 25.9081 107.685 26.2246 108.597 26.2246Z" fill="#52B530"/>
</g>
<circle cx="15.4778" cy="35.2095" r="3.67576" fill="white"/>
<rect x="25.2798" y="32.7593" width="49.0102" height="4.90102" fill="white"/>
<rect x="79.191" y="32.7593" width="22.0546" height="4.90102" fill="white"/>
<mask id="mask1_1809_4958" style="mask-type:alpha" maskUnits="userSpaceOnUse" x="103" y="30" width="11" height="11">
<rect x="103.696" y="30.3086" width="9.80204" height="9.80204" fill="#D9D9D9"/>
</mask>
<g mask="url(#mask1_1809_4958)">
<path d="M108.025 35.9448L107.147 35.0667C107.072 34.9918 106.977 34.9544 106.861 34.9544C106.746 34.9544 106.65 34.9918 106.576 35.0667C106.501 35.1416 106.463 35.2369 106.463 35.3526C106.463 35.4683 106.501 35.5636 106.576 35.6385L107.74 36.8025C107.821 36.8842 107.916 36.925 108.025 36.925C108.134 36.925 108.23 36.8842 108.311 36.8025L110.619 34.4949C110.694 34.4201 110.731 34.3248 110.731 34.209C110.731 34.0933 110.694 33.998 110.619 33.9232C110.544 33.8483 110.449 33.8108 110.333 33.8108C110.217 33.8108 110.122 33.8483 110.047 33.9232L108.025 35.9448ZM108.597 39.2939C108.032 39.2939 107.501 39.1866 107.004 38.9722C106.507 38.7578 106.075 38.4668 105.708 38.0992C105.34 37.7317 105.049 37.2994 104.835 36.8025C104.62 36.3056 104.513 35.7746 104.513 35.2097C104.513 34.6447 104.62 34.1137 104.835 33.6168C105.049 33.1199 105.34 32.6877 105.708 32.3201C106.075 31.9525 106.507 31.6615 107.004 31.4471C107.501 31.2327 108.032 31.1255 108.597 31.1255C109.162 31.1255 109.693 31.2327 110.19 31.4471C110.687 31.6615 111.119 31.9525 111.487 32.3201C111.854 32.6877 112.145 33.1199 112.36 33.6168C112.574 34.1137 112.681 34.6447 112.681 35.2097C112.681 35.7746 112.574 36.3056 112.36 36.8025C112.145 37.2994 111.854 37.7317 111.487 38.0992C111.119 38.4668 110.687 38.7578 110.19 38.9722C109.693 39.1866 109.162 39.2939 108.597 39.2939ZM108.597 38.477C109.509 38.477 110.282 38.1605 110.915 37.5274C111.548 36.8944 111.865 36.1218 111.865 35.2097C111.865 34.2975 111.548 33.5249 110.915 32.8919C110.282 32.2588 109.509 31.9423 108.597 31.9423C107.685 31.9423 106.912 32.2588 106.279 32.8919C105.646 33.5249 105.33 34.2975 105.33 35.2097C105.33 36.1218 105.646 36.8944 106.279 37.5274C106.912 38.1605 107.685 38.477 108.597 38.477Z" fill="#52B530"/>
</g>
<circle cx="15.4778" cy="47.4619" r="3.67576" fill="white"/>
<rect x="25.2798" y="45.0117" width="49.0102" height="4.90102" fill="white"/>
<rect x="79.191" y="45.0117" width="22.0546" height="4.90102" fill="white"/>
<mask id="mask2_1809_4958" style="mask-type:alpha" maskUnits="userSpaceOnUse" x="103" y="42" width="11" height="11">
<rect x="103.696" y="42.561" width="9.80204" height="9.80204" fill="#D9D9D9"/>
</mask>
<g mask="url(#mask2_1809_4958)">
<path d="M108.046 48.9937L110.037 47.7174C110.132 47.6561 110.18 47.571 110.18 47.4621C110.18 47.3532 110.132 47.2681 110.037 47.2069L108.046 45.9305C107.944 45.8625 107.84 45.8574 107.734 45.9152C107.629 45.9731 107.576 46.0633 107.576 46.1858V48.7384C107.576 48.8609 107.629 48.9511 107.734 49.009C107.84 49.0669 107.944 49.0617 108.046 48.9937ZM108.597 51.5463C108.032 51.5463 107.501 51.4391 107.004 51.2247C106.507 51.0102 106.075 50.7192 105.708 50.3517C105.34 49.9841 105.049 49.5519 104.835 49.0549C104.62 48.558 104.513 48.0271 104.513 47.4621C104.513 46.8971 104.62 46.3662 104.835 45.8693C105.049 45.3724 105.34 44.9401 105.708 44.5726C106.075 44.205 106.507 43.914 107.004 43.6996C107.501 43.4851 108.032 43.3779 108.597 43.3779C109.162 43.3779 109.693 43.4851 110.19 43.6996C110.687 43.914 111.119 44.205 111.487 44.5726C111.854 44.9401 112.145 45.3724 112.36 45.8693C112.574 46.3662 112.681 46.8971 112.681 47.4621C112.681 48.0271 112.574 48.558 112.36 49.0549C112.145 49.5519 111.854 49.9841 111.487 50.3517C111.119 50.7192 110.687 51.0102 110.19 51.2247C109.693 51.4391 109.162 51.5463 108.597 51.5463ZM108.597 50.7295C109.509 50.7295 110.282 50.4129 110.915 49.7799C111.548 49.1468 111.865 48.3742 111.865 47.4621C111.865 46.55 111.548 45.7774 110.915 45.1443C110.282 44.5113 109.509 44.1948 108.597 44.1948C107.685 44.1948 106.912 44.5113 106.279 45.1443C105.646 45.7774 105.33 46.55 105.33 47.4621C105.33 48.3742 105.646 49.1468 106.279 49.7799C106.912 50.4129 107.685 50.7295 108.597 50.7295Z" fill="#325FEB"/>
</g>
<circle cx="15.4778" cy="59.7148" r="3.67576" fill="white"/>
<rect x="25.2798" y="57.2646" width="49.0102" height="4.90102" fill="white"/>
<rect x="79.191" y="57.2646" width="22.0546" height="4.90102" fill="white"/>
<mask id="mask3_1809_4958" style="mask-type:alpha" maskUnits="userSpaceOnUse" x="103" y="54" width="11" height="11">
<rect x="103.696" y="54.814" width="9.80204" height="9.80204" fill="#D9D9D9"/>
</mask>
<g mask="url(#mask3_1809_4958)">
<path d="M108.046 61.2466L110.037 59.9703C110.132 59.909 110.18 59.824 110.18 59.715C110.18 59.6061 110.132 59.521 110.037 59.4598L108.046 58.1835C107.944 58.1154 107.84 58.1103 107.734 58.1682C107.629 58.226 107.576 58.3162 107.576 58.4387V60.9913C107.576 61.1139 107.629 61.2041 107.734 61.2619C107.84 61.3198 107.944 61.3147 108.046 61.2466ZM108.597 63.7992C108.032 63.7992 107.501 63.692 107.004 63.4776C106.507 63.2632 106.075 62.9722 105.708 62.6046C105.34 62.237 105.049 61.8048 104.835 61.3079C104.62 60.811 104.513 60.28 104.513 59.715C104.513 59.1501 104.62 58.6191 104.835 58.1222C105.049 57.6253 105.34 57.1931 105.708 56.8255C106.075 56.4579 106.507 56.1669 107.004 55.9525C107.501 55.7381 108.032 55.6309 108.597 55.6309C109.162 55.6309 109.693 55.7381 110.19 55.9525C110.687 56.1669 111.119 56.4579 111.487 56.8255C111.854 57.1931 112.145 57.6253 112.36 58.1222C112.574 58.6191 112.681 59.1501 112.681 59.715C112.681 60.28 112.574 60.811 112.36 61.3079C112.145 61.8048 111.854 62.237 111.487 62.6046C111.119 62.9722 110.687 63.2632 110.19 63.4776C109.693 63.692 109.162 63.7992 108.597 63.7992ZM108.597 62.9824C109.509 62.9824 110.282 62.6659 110.915 62.0328C111.548 61.3998 111.865 60.6272 111.865 59.715C111.865 58.8029 111.548 58.0303 110.915 57.3973C110.282 56.7642 109.509 56.4477 108.597 56.4477C107.685 56.4477 106.912 56.7642 106.279 57.3973C105.646 58.0303 105.33 58.8029 105.33 59.715C105.33 60.6272 105.646 61.3998 106.279 62.0328C106.912 62.6659 107.685 62.9824 108.597 62.9824Z" fill="#325FEB"/>
</g>
<circle cx="15.4778" cy="71.9673" r="3.67576" fill="white"/>
<rect x="25.2798" y="69.5171" width="49.0102" height="4.90102" fill="#D9D9D9"/>
<rect x="79.191" y="69.5171" width="22.0546" height="4.90102" fill="white"/>
<mask id="mask4_1809_4958" style="mask-type:alpha" maskUnits="userSpaceOnUse" x="103" y="67" width="11" height="10">
<rect x="103.696" y="67.0664" width="9.80204" height="9.80204" fill="#D9D9D9"/>
</mask>
<g mask="url(#mask4_1809_4958)">
<path d="M108.046 73.4991L110.037 72.2227C110.132 72.1615 110.18 72.0764 110.18 71.9675C110.18 71.8586 110.132 71.7735 110.037 71.7122L108.046 70.4359C107.944 70.3678 107.84 70.3627 107.734 70.4206C107.629 70.4785 107.576 70.5687 107.576 70.6912V73.2438C107.576 73.3663 107.629 73.4565 107.734 73.5144C107.84 73.5722 107.944 73.5671 108.046 73.4991ZM108.597 76.0517C108.032 76.0517 107.501 75.9445 107.004 75.73C106.507 75.5156 106.075 75.2246 105.708 74.857C105.34 74.4895 105.049 74.0572 104.835 73.5603C104.62 73.0634 104.513 72.5325 104.513 71.9675C104.513 71.4025 104.62 70.8716 104.835 70.3747C105.049 69.8777 105.34 69.4455 105.708 69.0779C106.075 68.7103 106.507 68.4193 107.004 68.2049C107.501 67.9905 108.032 67.8833 108.597 67.8833C109.162 67.8833 109.693 67.9905 110.19 68.2049C110.687 68.4193 111.119 68.7103 111.487 69.0779C111.854 69.4455 112.145 69.8777 112.36 70.3747C112.574 70.8716 112.681 71.4025 112.681 71.9675C112.681 72.5325 112.574 73.0634 112.36 73.5603C112.145 74.0572 111.854 74.4895 111.487 74.857C111.119 75.2246 110.687 75.5156 110.19 75.73C109.693 75.9445 109.162 76.0517 108.597 76.0517ZM108.597 75.2348C109.509 75.2348 110.282 74.9183 110.915 74.2853C111.548 73.6522 111.865 72.8796 111.865 71.9675C111.865 71.0553 111.548 70.2828 110.915 69.6497C110.282 69.0167 109.509 68.7001 108.597 68.7001C107.685 68.7001 106.912 69.0167 106.279 69.6497C105.646 70.2828 105.33 71.0553 105.33 71.9675C105.33 72.8796 105.646 73.6522 106.279 74.2853C106.912 74.9183 107.685 75.2348 108.597 75.2348Z" fill="#325FEB"/>
</g>
<path d="M83.2788 12.1578V13H80.4809V12.1578H81.4414V8.94232C81.4043 8.998 81.3416 9.06064 81.2535 9.13024C81.17 9.1952 81.0725 9.26016 80.9612 9.32512C80.8544 9.38544 80.7431 9.43648 80.6271 9.47824C80.5157 9.52 80.4136 9.54088 80.3208 9.54088V8.67784C80.4461 8.67784 80.5737 8.64536 80.7036 8.5804C80.8336 8.51544 80.9542 8.4412 81.0656 8.35768C81.1769 8.27416 81.2651 8.1976 81.33 8.128C81.3996 8.05376 81.4368 8.01432 81.4414 8.00968H82.3949V12.1578H83.2788ZM86.9987 13.0487C86.7343 13.0487 86.493 13.0162 86.2749 12.9513C86.0615 12.8817 85.8735 12.7842 85.7111 12.659C85.5534 12.529 85.4281 12.3759 85.3353 12.1996L85.8364 11.5662C85.8828 11.6683 85.9571 11.7681 86.0591 11.8655C86.1612 11.963 86.2888 12.0418 86.4419 12.1022C86.5951 12.1625 86.7691 12.1926 86.9639 12.1926C87.1542 12.1926 87.3189 12.1648 87.4581 12.1091C87.5973 12.0534 87.704 11.9769 87.7783 11.8794C87.8571 11.7774 87.8966 11.6544 87.8966 11.5106C87.8966 11.3574 87.8479 11.2275 87.7504 11.1208C87.6576 11.0141 87.5184 10.9329 87.3328 10.8772C87.1472 10.8215 86.9199 10.7937 86.6507 10.7937H86.4211V10.0977H86.6647C86.9987 10.0977 87.2655 10.0397 87.4651 9.92368C87.6692 9.80768 87.7713 9.64296 87.7713 9.42952C87.7713 9.2996 87.7365 9.18824 87.6669 9.09544C87.5973 8.998 87.5045 8.92608 87.3885 8.87968C87.2725 8.82864 87.1449 8.80312 87.0057 8.80312C86.7737 8.80312 86.5672 8.8588 86.3863 8.97016C86.2099 9.07688 86.0754 9.21608 85.9826 9.38776L85.3771 8.71264C85.4791 8.56416 85.6183 8.43888 85.7947 8.3368C85.971 8.23008 86.1682 8.14656 86.3863 8.08624C86.609 8.02592 86.8387 7.99576 87.0753 7.99576C87.4047 7.99576 87.6971 8.05376 87.9523 8.16976C88.2075 8.28112 88.407 8.43424 88.5508 8.62912C88.6947 8.824 88.7666 9.04672 88.7666 9.29728C88.7666 9.48288 88.7271 9.65224 88.6483 9.80536C88.574 9.95848 88.4673 10.0861 88.3281 10.1882C88.1889 10.2902 88.0242 10.3645 87.8339 10.4109C88.0381 10.4434 88.2167 10.5199 88.3699 10.6406C88.5276 10.7566 88.6483 10.905 88.7318 11.086C88.8199 11.2623 88.864 11.4549 88.864 11.6637C88.864 11.956 88.7805 12.2042 88.6135 12.4084C88.4511 12.6126 88.2283 12.7703 87.9453 12.8817C87.6669 12.993 87.3514 13.0487 86.9987 13.0487ZM91.0492 13.0696C90.6919 13.0696 90.3694 12.993 90.0818 12.8399C89.7987 12.6822 89.5806 12.471 89.4275 12.2066L89.9634 11.6498C90.098 11.8307 90.2604 11.9746 90.4506 12.0813C90.6455 12.188 90.8474 12.2414 91.0562 12.2414C91.2232 12.2414 91.3717 12.2066 91.5016 12.137C91.6315 12.0674 91.7313 11.9699 91.8009 11.8446C91.8751 11.7194 91.9122 11.5755 91.9122 11.4131C91.9122 11.2554 91.8774 11.1162 91.8078 10.9955C91.7382 10.8702 91.6431 10.7751 91.5225 10.7102C91.4018 10.6406 91.265 10.6058 91.1118 10.6058C90.9634 10.6058 90.8218 10.6406 90.6873 10.7102C90.5527 10.7751 90.446 10.8702 90.3671 10.9955H89.5528L90.1235 8.0584H92.5595V8.90752H90.7986L90.6038 10.0142C90.6594 9.95384 90.7406 9.90512 90.8474 9.868C90.9541 9.82624 91.0863 9.80536 91.2441 9.80536C91.555 9.80536 91.8334 9.87496 92.0793 10.0142C92.3252 10.1487 92.5178 10.3343 92.657 10.571C92.8008 10.8076 92.8727 11.0814 92.8727 11.3922C92.8727 11.7217 92.7915 12.014 92.6291 12.2692C92.4714 12.5198 92.2556 12.717 91.9818 12.8608C91.7127 13 91.4018 13.0696 91.0492 13.0696ZM97.0859 11.3505C97.0859 11.6706 97.0047 11.9606 96.8423 12.2205C96.6845 12.4803 96.4687 12.6868 96.195 12.8399C95.9259 12.993 95.6196 13.0696 95.2763 13.0696C94.9051 13.0696 94.5826 12.9791 94.3088 12.7982C94.0397 12.6172 93.8309 12.3574 93.6824 12.0186C93.5339 11.6799 93.4597 11.2739 93.4597 10.8006C93.4597 10.2021 93.5363 9.69632 93.6894 9.28336C93.8471 8.86576 94.0699 8.55256 94.3575 8.34376C94.6452 8.13032 94.9839 8.0236 95.3737 8.0236C95.6846 8.0236 95.9699 8.09088 96.2298 8.22544C96.4943 8.36 96.717 8.55256 96.8979 8.80312L96.362 9.38776C96.2507 9.21608 96.1068 9.08152 95.9305 8.98408C95.7542 8.882 95.5639 8.83096 95.3598 8.83096C95.151 8.83096 94.97 8.88664 94.8169 8.998C94.6638 9.10936 94.5455 9.27176 94.4619 9.4852C94.3784 9.694 94.332 9.94688 94.3227 10.2438C94.3877 10.1325 94.4712 10.0374 94.5733 9.95848C94.6754 9.87496 94.7937 9.81232 94.9283 9.77056C95.0628 9.72416 95.2067 9.70096 95.3598 9.70096C95.6892 9.70096 95.9839 9.7752 96.2437 9.92368C96.5035 10.0675 96.7077 10.2647 96.8562 10.5153C97.0093 10.7612 97.0859 11.0396 97.0859 11.3505ZM95.2763 12.2831C95.4433 12.2831 95.5964 12.2414 95.7356 12.1578C95.8748 12.0697 95.9862 11.956 96.0697 11.8168C96.1532 11.673 96.195 11.5175 96.195 11.3505C96.195 11.1834 96.1532 11.0326 96.0697 10.8981C95.9862 10.7589 95.8748 10.6498 95.7356 10.571C95.6011 10.4874 95.4503 10.4457 95.2832 10.4457C95.1162 10.4457 94.9631 10.4874 94.8239 10.571C94.6847 10.6498 94.5733 10.7589 94.4898 10.8981C94.4109 11.0326 94.3715 11.1834 94.3715 11.3505C94.3715 11.5175 94.4132 11.673 94.4967 11.8168C94.5803 11.956 94.6916 12.0697 94.8308 12.1578C94.97 12.2414 95.1185 12.2831 95.2763 12.2831ZM102.937 11.5384C102.937 11.8446 102.853 12.1114 102.686 12.3388C102.524 12.5662 102.306 12.7448 102.032 12.8747C101.758 13 101.459 13.0626 101.134 13.0626C100.805 13.0626 100.503 12.9954 100.229 12.8608C99.9603 12.7262 99.7445 12.543 99.5821 12.311C99.4243 12.0743 99.3455 11.8052 99.3455 11.5036C99.3455 11.318 99.3849 11.151 99.4638 11.0025C99.5427 10.8494 99.6401 10.7194 99.7561 10.6127C99.8767 10.5014 99.9974 10.4155 100.118 10.3552C100.007 10.2995 99.9023 10.2253 99.8048 10.1325C99.712 10.0397 99.6378 9.93296 99.5821 9.81232C99.5264 9.69168 99.4986 9.56408 99.4986 9.42952C99.4986 9.21144 99.5473 9.01656 99.6447 8.84488C99.7422 8.6732 99.8721 8.52936 100.035 8.41336C100.197 8.29272 100.373 8.20456 100.563 8.14888C100.758 8.08856 100.951 8.0584 101.141 8.0584C101.327 8.0584 101.517 8.08856 101.712 8.14888C101.907 8.20456 102.085 8.2904 102.248 8.4064C102.41 8.5224 102.54 8.66624 102.638 8.83792C102.74 9.00496 102.791 9.19984 102.791 9.42256C102.791 9.55248 102.761 9.68008 102.7 9.80536C102.645 9.926 102.568 10.035 102.471 10.1325C102.378 10.2253 102.271 10.2995 102.15 10.3552C102.285 10.4248 102.413 10.5153 102.533 10.6266C102.654 10.738 102.751 10.8702 102.825 11.0234C102.9 11.1765 102.937 11.3482 102.937 11.5384ZM101.99 11.4827C101.99 11.3621 101.967 11.2577 101.921 11.1695C101.874 11.0767 101.809 11.0002 101.726 10.9398C101.642 10.8749 101.549 10.8262 101.447 10.7937C101.345 10.7612 101.241 10.745 101.134 10.745C100.986 10.745 100.847 10.7751 100.717 10.8354C100.591 10.8958 100.489 10.9816 100.41 11.093C100.331 11.2043 100.292 11.3342 100.292 11.4827C100.292 11.5941 100.315 11.6962 100.362 11.789C100.413 11.8771 100.478 11.9537 100.557 12.0186C100.64 12.0836 100.731 12.1346 100.828 12.1718C100.93 12.2042 101.034 12.2205 101.141 12.2205C101.29 12.2205 101.429 12.188 101.559 12.123C101.689 12.0581 101.793 11.9699 101.872 11.8586C101.951 11.7472 101.99 11.6219 101.99 11.4827ZM100.445 9.45736C100.445 9.58264 100.48 9.68936 100.55 9.77752C100.619 9.86568 100.707 9.93296 100.814 9.97936C100.925 10.0211 101.034 10.042 101.141 10.042C101.253 10.042 101.359 10.0188 101.461 9.9724C101.568 9.926 101.656 9.86104 101.726 9.77752C101.8 9.68936 101.837 9.58032 101.837 9.4504C101.837 9.3344 101.805 9.23464 101.74 9.15112C101.675 9.0676 101.589 9.00264 101.482 8.95624C101.38 8.90984 101.264 8.88664 101.134 8.88664C101.014 8.88664 100.9 8.90984 100.793 8.95624C100.686 9.00264 100.601 9.06992 100.536 9.15808C100.475 9.2416 100.445 9.34136 100.445 9.45736ZM105.676 13.0696C105.328 13.065 105.019 12.9861 104.75 12.833C104.481 12.6798 104.256 12.478 104.075 12.2274C103.894 11.9769 103.757 11.7078 103.664 11.4201C103.576 11.1278 103.532 10.8424 103.532 10.564C103.532 10.267 103.581 9.97008 103.678 9.67312C103.776 9.37616 103.917 9.10704 104.103 8.86576C104.293 8.61984 104.52 8.42496 104.785 8.28112C105.049 8.13264 105.346 8.0584 105.676 8.0584C106.033 8.0584 106.344 8.13728 106.608 8.29504C106.877 8.4528 107.102 8.65696 107.283 8.90752C107.464 9.15808 107.599 9.42952 107.687 9.72184C107.78 10.0142 107.826 10.2949 107.826 10.564C107.826 10.8656 107.778 11.1649 107.68 11.4618C107.583 11.7542 107.439 12.021 107.249 12.2622C107.063 12.5035 106.838 12.6984 106.574 12.8469C106.309 12.9907 106.01 13.065 105.676 13.0696ZM104.499 10.564C104.504 10.7589 104.53 10.9538 104.576 11.1486C104.627 11.3389 104.699 11.5152 104.792 11.6776C104.889 11.84 105.012 11.9722 105.161 12.0743C105.309 12.1718 105.481 12.2205 105.676 12.2205C105.884 12.2205 106.063 12.1671 106.212 12.0604C106.36 11.9537 106.481 11.8168 106.574 11.6498C106.671 11.4827 106.743 11.3041 106.789 11.1138C106.836 10.9236 106.859 10.7403 106.859 10.564C106.859 10.3691 106.833 10.1766 106.782 9.98632C106.736 9.79144 106.662 9.6128 106.56 9.4504C106.462 9.288 106.339 9.15808 106.191 9.06064C106.047 8.95856 105.875 8.90752 105.676 8.90752C105.472 8.90752 105.295 8.96088 105.147 9.0676C104.998 9.17432 104.875 9.3112 104.778 9.47824C104.685 9.64528 104.615 9.82392 104.569 10.0142C104.523 10.2044 104.499 10.3877 104.499 10.564ZM110.556 13.0696C110.208 13.065 109.899 12.9861 109.63 12.833C109.361 12.6798 109.136 12.478 108.955 12.2274C108.774 11.9769 108.637 11.7078 108.544 11.4201C108.456 11.1278 108.412 10.8424 108.412 10.564C108.412 10.267 108.461 9.97008 108.558 9.67312C108.656 9.37616 108.797 9.10704 108.983 8.86576C109.173 8.61984 109.4 8.42496 109.665 8.28112C109.929 8.13264 110.226 8.0584 110.556 8.0584C110.913 8.0584 111.224 8.13728 111.488 8.29504C111.758 8.4528 111.983 8.65696 112.164 8.90752C112.345 9.15808 112.479 9.42952 112.567 9.72184C112.66 10.0142 112.706 10.2949 112.706 10.564C112.706 10.8656 112.658 11.1649 112.56 11.4618C112.463 11.7542 112.319 12.021 112.129 12.2622C111.943 12.5035 111.718 12.6984 111.454 12.8469C111.189 12.9907 110.89 13.065 110.556 13.0696ZM109.38 10.564C109.384 10.7589 109.41 10.9538 109.456 11.1486C109.507 11.3389 109.579 11.5152 109.672 11.6776C109.769 11.84 109.892 11.9722 110.041 12.0743C110.189 12.1718 110.361 12.2205 110.556 12.2205C110.765 12.2205 110.943 12.1671 111.092 12.0604C111.24 11.9537 111.361 11.8168 111.454 11.6498C111.551 11.4827 111.623 11.3041 111.669 11.1138C111.716 10.9236 111.739 10.7403 111.739 10.564C111.739 10.3691 111.714 10.1766 111.662 9.98632C111.616 9.79144 111.542 9.6128 111.44 9.4504C111.342 9.288 111.219 9.15808 111.071 9.06064C110.927 8.95856 110.755 8.90752 110.556 8.90752C110.352 8.90752 110.175 8.96088 110.027 9.0676C109.878 9.17432 109.755 9.3112 109.658 9.47824C109.565 9.64528 109.496 9.82392 109.449 10.0142C109.403 10.2044 109.38 10.3877 109.38 10.564Z" fill="#39414E"/>
<path d="M12.4446 14V9.8465H15.8084V14H15.0069V10.5543H13.2461V14H12.4446ZM18.4441 14.0585C18.2062 14.0585 17.9956 14.0059 17.8123 13.9005C17.6329 13.7913 17.4925 13.6451 17.3911 13.4618V15.2461H16.6072V10.9346H17.2917V11.4611C17.4087 11.2817 17.5569 11.1413 17.7363 11.0399C17.9157 10.9346 18.1204 10.8819 18.3505 10.8819C18.5572 10.8819 18.7464 10.9229 18.918 11.0048C19.0935 11.0867 19.2456 11.2017 19.3743 11.3499C19.503 11.4942 19.6024 11.6619 19.6726 11.853C19.7467 12.0402 19.7838 12.243 19.7838 12.4614C19.7838 12.7578 19.7253 13.0269 19.6083 13.2688C19.4952 13.5106 19.3372 13.7036 19.1344 13.8479C18.9355 13.9883 18.7054 14.0585 18.4441 14.0585ZM18.1809 13.3916C18.3018 13.3916 18.411 13.3662 18.5085 13.3155C18.606 13.2648 18.6898 13.1966 18.76 13.1108C18.8341 13.0211 18.8887 12.9216 18.9238 12.8124C18.9628 12.6993 18.9823 12.5823 18.9823 12.4614C18.9823 12.3327 18.9609 12.2138 18.918 12.1046C18.879 11.9954 18.8205 11.8998 18.7425 11.8179C18.6645 11.7321 18.5728 11.6658 18.4675 11.6191C18.3661 11.5722 18.255 11.5488 18.1341 11.5488C18.06 11.5488 17.9839 11.5625 17.9059 11.5898C17.8318 11.6132 17.7597 11.6483 17.6895 11.6951C17.6193 11.7419 17.5569 11.7965 17.5023 11.8589C17.4516 11.9213 17.4145 11.9895 17.3911 12.0636V12.7832C17.4379 12.8963 17.5003 12.9996 17.5783 13.0933C17.6602 13.1868 17.7538 13.2609 17.8591 13.3155C17.9644 13.3662 18.0717 13.3916 18.1809 13.3916ZM21.7306 14.0585C21.481 14.0585 21.2568 14.0176 21.0579 13.9356C20.859 13.8499 20.6893 13.7329 20.5489 13.5846C20.4124 13.4364 20.3071 13.2668 20.233 13.0757C20.1589 12.8846 20.1219 12.6837 20.1219 12.4731C20.1219 12.2586 20.1589 12.0558 20.233 11.8647C20.3071 11.6736 20.4124 11.504 20.5489 11.3558C20.6893 11.2076 20.859 11.0925 21.0579 11.0106C21.2568 10.9248 21.481 10.8819 21.7306 10.8819C21.9802 10.8819 22.2025 10.9248 22.3975 11.0106C22.5964 11.0925 22.7661 11.2076 22.9065 11.3558C23.0469 11.504 23.1522 11.6736 23.2224 11.8647C23.2965 12.0558 23.3335 12.2586 23.3335 12.4731C23.3335 12.6837 23.2965 12.8846 23.2224 13.0757C23.1522 13.2668 23.0469 13.4364 22.9065 13.5846C22.77 13.7329 22.6023 13.8499 22.4034 13.9356C22.2045 14.0176 21.9802 14.0585 21.7306 14.0585ZM20.9292 12.4731C20.9292 12.6525 20.9643 12.8124 21.0345 12.9528C21.1047 13.0893 21.2002 13.1966 21.3211 13.2746C21.442 13.3526 21.5785 13.3916 21.7306 13.3916C21.8788 13.3916 22.0134 13.3526 22.1343 13.2746C22.2552 13.1927 22.3507 13.0835 22.4209 12.947C22.495 12.8066 22.5321 12.6467 22.5321 12.4673C22.5321 12.2918 22.495 12.1338 22.4209 11.9934C22.3507 11.853 22.2552 11.7438 22.1343 11.6658C22.0134 11.5878 21.8788 11.5488 21.7306 11.5488C21.5785 11.5488 21.442 11.5898 21.3211 11.6717C21.2002 11.7497 21.1047 11.8589 21.0345 11.9993C20.9643 12.1358 20.9292 12.2937 20.9292 12.4731ZM25.2842 14.0585C25.0385 14.0585 24.8162 14.0176 24.6173 13.9356C24.4184 13.8499 24.2487 13.7348 24.1083 13.5905C23.9679 13.4423 23.8587 13.2746 23.7807 13.0874C23.7066 12.8963 23.6696 12.6954 23.6696 12.4849C23.6696 12.1923 23.7339 11.9252 23.8626 11.6834C23.9952 11.4416 24.1824 11.2485 24.4242 11.1042C24.6699 10.956 24.9585 10.8819 25.29 10.8819C25.6254 10.8819 25.9121 10.956 26.15 11.1042C26.3879 11.2485 26.5692 11.4416 26.694 11.6834C26.8227 11.9213 26.8871 12.1787 26.8871 12.4556C26.8871 12.5024 26.8851 12.5511 26.8812 12.6018C26.8773 12.6486 26.8734 12.6876 26.8695 12.7188H24.5003C24.5159 12.8748 24.5607 13.0113 24.6348 13.1283C24.7128 13.2453 24.8103 13.335 24.9273 13.3974C25.0482 13.4559 25.1769 13.4852 25.3134 13.4852C25.4694 13.4852 25.6157 13.4481 25.7522 13.374C25.8926 13.296 25.9881 13.1946 26.0388 13.0698L26.7116 13.257C26.6375 13.413 26.5302 13.5515 26.3898 13.6724C26.2533 13.7933 26.0915 13.8888 25.9043 13.959C25.7171 14.0254 25.5104 14.0585 25.2842 14.0585ZM24.4827 12.2216H26.0856C26.07 12.0656 26.0252 11.931 25.9511 11.8179C25.8809 11.7009 25.7873 11.6112 25.6703 11.5488C25.5533 11.4825 25.4226 11.4494 25.2783 11.4494C25.1379 11.4494 25.0092 11.4825 24.8922 11.5488C24.7791 11.6112 24.6855 11.7009 24.6114 11.8179C24.5412 11.931 24.4983 12.0656 24.4827 12.2216ZM27.3646 14V10.9346H28.1485V12.0929H28.4118L29.2425 10.9346H30.0966L29.0085 12.4146L30.2136 14H29.3185L28.4001 12.7832H28.1485V14H27.3646ZM31.4088 14V11.6191H30.4377V10.9346H33.1696V11.6191H32.1927V14H31.4088Z" fill="#39414E"/>
<path fill-rule="evenodd" clip-rule="evenodd" d="M102.054 118.282C97.6625 116.951 94.5961 113.743 92.8885 110.077C91.1951 106.442 90.7351 102.173 91.6362 98.2442C92.1078 96.1871 94.1605 94.9008 96.2176 95.3724C98.2747 95.844 99.561 97.8967 99.0894 99.9538C98.5708 102.217 98.8424 104.75 99.82 106.848C100.783 108.916 102.327 110.375 104.272 110.965C107.032 111.8 109.793 110.597 111.279 108.491C112.614 106.599 112.831 104.184 110.496 101.913C108.984 100.442 108.951 98.0193 110.422 96.506C111.893 94.9937 114.316 94.9607 115.829 96.432C121.096 101.555 120.838 108.208 117.528 112.9C114.381 117.359 108.348 120.191 102.054 118.282Z" fill="#E59345"/>
<path fill-rule="evenodd" clip-rule="evenodd" d="M31.717 54.5972C31.914 53.4702 32.948 47.1272 33.242 45.5222C33.477 44.2482 33.499 42.8262 33.775 41.6522C34.179 39.9372 35.773 27.0342 37.357 26.3302C41.186 24.6302 46.184 29.3442 49.881 32.0322C53.876 34.9342 67.866 34.8612 72.106 32.1372C74.709 30.4632 79.688 24.9412 82.504 25.8472C85.606 26.8452 86.192 34.7292 86.547 37.4592C87.089 41.6222 89.275 58.7212 88.21 61.9352C81.443 82.3452 55.546 87.3912 39.158 74.5522C33.42 70.0572 35.592 67.3502 32.589 62.0162C30.727 62.5802 31.446 56.1432 31.717 54.5972Z" fill="#E59345"/>
<path fill-rule="evenodd" clip-rule="evenodd" d="M88.5739 58.7905C71.1519 72.1245 51.9279 72.0585 31.4669 58.2645C35.9059 80.5255 46.8559 97.7415 61.2449 112.292H61.4059C74.0999 96.7465 84.3979 79.9225 88.5739 58.7905Z" fill="white"/>
<path fill-rule="evenodd" clip-rule="evenodd" d="M88.5579 58.4254C83.3549 77.2094 74.0509 92.9414 60.8759 105.791C47.4309 93.3134 38.2469 76.9015 31.3039 58.4254C12.2979 111.18 29.1889 122.774 60.1759 120.193C85.9459 123.04 112.085 118.95 88.5579 58.4254Z" fill="#202227"/>
<path fill-rule="evenodd" clip-rule="evenodd" d="M55.326 72.3092L60.802 68.3052L66.293 72.1302C66.541 74.8262 64.914 75.7742 63.034 76.5312L68.756 98.9642L60.791 106.888L51.969 99.6842L58.678 76.7732C56.799 76.0892 55.485 74.9022 55.326 72.3092Z" fill="#202227"/>
<path fill-rule="evenodd" clip-rule="evenodd" d="M35.126 33.5985L35.634 31.0365C35.811 30.2155 35.996 29.4485 36.185 28.7805L36.31 28.3795L36.636 28.4015C37.888 28.6135 38.863 29.6825 38.909 31.0005C38.961 32.5075 37.78 33.7735 36.274 33.8255C35.897 33.8385 35.536 33.7745 35.204 33.6475L35.126 33.5985Z" fill="#F5BA72"/>
<path fill-rule="evenodd" clip-rule="evenodd" d="M82.5659 31.1895C82.5199 29.8715 83.4189 28.7375 84.6529 28.4395L84.7069 28.4325L85.0519 29.2405C85.4359 30.3585 85.7169 31.6235 85.9289 32.8495L86.0599 33.7085L85.9379 33.7515C85.7609 33.7945 85.5779 33.8195 85.3899 33.8255C83.8839 33.8775 82.6179 32.6965 82.5659 31.1895Z" fill="#F5BA72"/>
<path fill-rule="evenodd" clip-rule="evenodd" d="M36.5339 101.519C37.7989 103.374 40.9409 105.337 42.8379 106.519C44.7589 107.717 49.5759 109.1 51.3099 105.874C52.6899 103.306 45.5209 96.966 44.2769 94.907L36.5339 101.519Z" fill="#E59345"/>
<path fill-rule="evenodd" clip-rule="evenodd" d="M38.388 104.181L46.954 97.4292L44.565 94.7462L36 101.497L38.388 104.181Z" fill="white"/>
<path fill-rule="evenodd" clip-rule="evenodd" d="M87.0454 101.519C85.7324 103.374 82.5384 105.337 80.6124 106.519C78.6604 107.717 73.8084 109.1 72.1574 105.874C70.8414 103.306 78.1734 96.966 79.4724 94.907L87.0454 101.519Z" fill="#E59345"/>
<path fill-rule="evenodd" clip-rule="evenodd" d="M85.1224 104.181L76.7284 97.4292L79.1854 94.7462L87.5794 101.497L85.1224 104.181Z" fill="white"/>
<path fill-rule="evenodd" clip-rule="evenodd" d="M47.1079 40.1371C49.7119 40.1371 51.8269 42.2531 51.8269 44.8581C51.8269 47.4631 49.7119 49.5791 47.1079 49.5791C44.5039 49.5791 42.3889 47.4631 42.3889 44.8581C42.3889 42.2531 44.5039 40.1371 47.1079 40.1371Z" fill="white"/>
<path fill-rule="evenodd" clip-rule="evenodd" d="M47.1089 44.7463C48.2789 44.7463 49.2289 45.6973 49.2289 46.8673C49.2289 48.0373 48.2789 48.9883 47.1089 48.9883C45.9389 48.9883 44.9889 48.0373 44.9889 46.8673C44.9889 45.6973 45.9389 44.7463 47.1089 44.7463Z" fill="#9A520F"/>
<path fill-rule="evenodd" clip-rule="evenodd" d="M74.626 40.1371C77.23 40.1371 79.345 42.2531 79.345 44.8581C79.345 47.4631 77.23 49.5791 74.626 49.5791C72.022 49.5791 69.907 47.4631 69.907 44.8581C69.907 42.2531 72.022 40.1371 74.626 40.1371Z" fill="white"/>
<path fill-rule="evenodd" clip-rule="evenodd" d="M74.475 44.7463C75.645 44.7463 76.595 45.6973 76.595 46.8673C76.595 48.0373 75.645 48.9883 74.475 48.9883C73.305 48.9883 72.355 48.0373 72.355 46.8673C72.355 45.6973 73.305 44.7463 74.475 44.7463Z" fill="#9A520F"/>
<path fill-rule="evenodd" clip-rule="evenodd" d="M60.4139 48.97C59.0679 48.932 57.7889 48.475 56.8929 47.779C56.6479 47.588 56.6039 47.234 56.7939 46.989C56.9849 46.744 57.3389 46.7 57.5839 46.89C58.2749 47.428 59.3179 47.813 60.4459 47.846C61.5669 47.878 62.7399 47.561 63.7189 46.738C63.9569 46.538 64.3119 46.569 64.5119 46.806C64.7119 47.044 64.6809 47.399 64.4439 47.599C63.2229 48.626 61.7679 49.009 60.4139 48.97Z" fill="#9A520F"/>
<path fill-rule="evenodd" clip-rule="evenodd" d="M63.3859 53.6492C61.5809 53.1282 59.9569 51.4072 60.3629 48.8082C60.4109 48.5012 60.6979 48.2912 61.0049 48.3392C61.3119 48.3872 61.5219 48.6742 61.4739 48.9812C61.1679 50.9442 62.3479 52.1782 63.6979 52.5682C64.3799 52.7642 65.0679 52.7292 65.5969 52.4852C66.1069 52.2502 66.5039 51.8082 66.6329 51.0892C66.6879 50.7832 66.9799 50.5802 67.2859 50.6352C67.5919 50.6902 67.7949 50.9822 67.7399 51.2882C67.5449 52.3752 66.9059 53.1202 66.0689 53.5062C65.2509 53.8842 64.2789 53.9062 63.3859 53.6492Z" fill="#9A520F"/>
<path fill-rule="evenodd" clip-rule="evenodd" d="M55.4849 53.5071C54.6479 53.1211 54.0089 52.3761 53.8139 51.2891C53.7589 50.9831 53.9619 50.6911 54.2679 50.6361C54.5739 50.5811 54.8659 50.7841 54.9209 51.0901C55.0499 51.8091 55.4469 52.2511 55.9569 52.4861C56.4859 52.7301 57.1739 52.7651 57.8559 52.5691C59.2009 52.1811 60.3859 50.9501 60.0799 48.9821C60.0319 48.6751 60.2419 48.3881 60.5489 48.3401C60.8559 48.2921 61.1429 48.5021 61.1909 48.8091C61.5969 51.4131 59.9669 53.1311 58.1679 53.6501C57.2749 53.9071 56.3029 53.8851 55.4849 53.5071Z" fill="#9A520F"/>
<path fill-rule="evenodd" clip-rule="evenodd" d="M76.2239 53.0332L70.1849 51.4272C69.8849 51.3472 69.7059 51.0392 69.7859 50.7392C69.8659 50.4392 70.1739 50.2602 70.4739 50.3402L76.5129 51.9462C76.8129 52.0262 76.9919 52.3342 76.9119 52.6342C76.8319 52.9342 76.5239 53.1132 76.2239 53.0332Z" fill="#FFD28D"/>
<path fill-rule="evenodd" clip-rule="evenodd" d="M76.161 55.9184L69.816 53.3944C69.527 53.2794 69.386 52.9524 69.501 52.6644C69.616 52.3754 69.943 52.2344 70.231 52.3494L76.576 54.8734C76.865 54.9884 77.006 55.3154 76.891 55.6034C76.776 55.8924 76.449 56.0334 76.161 55.9184Z" fill="#FFD28D"/>
<path fill-rule="evenodd" clip-rule="evenodd" d="M44.4069 52.8651C44.3269 52.5651 44.5059 52.2571 44.8059 52.1771L50.8439 50.5721C51.1439 50.4921 51.4519 50.6711 51.5319 50.9711C51.6119 51.2711 51.4329 51.5791 51.1329 51.6591L45.0949 53.2641C44.7949 53.3441 44.4869 53.1651 44.4069 52.8651Z" fill="#FFD28D"/>
<path fill-rule="evenodd" clip-rule="evenodd" d="M44.428 55.8344C44.313 55.5464 44.454 55.2194 44.743 55.1044L51.087 52.5814C51.375 52.4664 51.702 52.6074 51.817 52.8964C51.932 53.1844 51.791 53.5114 51.502 53.6264L45.158 56.1494C44.87 56.2644 44.543 56.1234 44.428 55.8344Z" fill="#FFD28D"/>
<path fill-rule="evenodd" clip-rule="evenodd" d="M71.8309 38.9541V36.5841C71.8309 36.2741 72.0829 36.0221 72.3939 36.0221C72.7039 36.0221 72.9559 36.2741 72.9559 36.5841V38.9541C72.9559 39.2651 72.7039 39.5171 72.3939 39.5171C72.0829 39.5171 71.8309 39.2651 71.8309 38.9541Z" fill="#FFD28D"/>
<path fill-rule="evenodd" clip-rule="evenodd" d="M73.9709 38.5723V36.2023C73.9709 35.8923 74.2229 35.6403 74.5339 35.6403C74.8439 35.6403 75.0959 35.8923 75.0959 36.2023V38.5723C75.0959 38.8833 74.8439 39.1353 74.5339 39.1353C74.2229 39.1353 73.9709 38.8833 73.9709 38.5723Z" fill="#FFD28D"/>
<path fill-rule="evenodd" clip-rule="evenodd" d="M49.517 38.9551V36.5851C49.517 36.2751 49.769 36.0231 50.08 36.0231C50.39 36.0231 50.642 36.2751 50.642 36.5851V38.9551C50.642 39.2661 50.39 39.5181 50.08 39.5181C49.769 39.5181 49.517 39.2661 49.517 38.9551Z" fill="#FFD28D"/>
<path fill-rule="evenodd" clip-rule="evenodd" d="M47.377 38.5732V36.2032C47.377 35.8932 47.629 35.6412 47.94 35.6412C48.25 35.6412 48.502 35.8932 48.502 36.2032V38.5732C48.502 38.8842 48.25 39.1362 47.94 39.1362C47.629 39.1362 47.377 38.8842 47.377 38.5732Z" fill="#FFD28D"/>
<rect x="19" y="68.7461" width="83" height="46" rx="4" fill="#C0C5D0"/>
<path d="M19 118.746C19 117.089 20.3431 115.746 22 115.746H99C100.657 115.746 102 117.089 102 118.746C102 120.403 100.657 121.746 99 121.746H22C20.3431 121.746 19 120.403 19 118.746Z" fill="#C0C5D0"/>
<circle cx="25" cy="118.746" r="1" fill="#35373C"/>
<rect x="27" y="117.746" width="7" height="2" rx="1" fill="#35373C"/>
<path d="M22 115.246C22 114.97 22.2239 114.746 22.5 114.746H98.5C98.7761 114.746 99 114.97 99 115.246C99 115.522 98.7761 115.746 98.5 115.746H22.5C22.2239 115.746 22 115.522 22 115.246Z" fill="#35373C"/>
<path d="M55.9119 86.7479C56.3365 86.2858 57.6101 85.5465 59.3082 86.2858C61.0063 87.0251 60.8648 88.1341 60.5818 88.5962C59.3082 89.0582 59.3082 87.6721 58.4591 87.21C57.7799 86.8403 56.478 86.7479 55.9119 86.7479Z" fill="#818392"/>
<path d="M65 86.7479C64.5755 86.2858 63.3019 85.5465 61.6038 86.2858C59.9056 87.0251 60.0471 88.1341 60.3302 88.5962C61.6038 89.0582 61.6038 87.6721 62.4528 87.21C63.1321 86.8403 64.434 86.7479 65 86.7479Z" fill="#818392"/>
<path d="M62.9966 84.04C62.4156 83.8887 60.9734 83.9474 59.8525 85.3926C58.7317 86.8378 59.3693 87.645 59.8283 87.8679C61.1416 87.5895 60.4971 86.4911 61.0145 85.6952C61.4285 85.0585 62.5084 84.3264 62.9966 84.04Z" fill="#818392"/>
<path fill-rule="evenodd" clip-rule="evenodd" d="M60.5818 88.5195C58.9406 88.5195 57.6101 89.85 57.6101 91.4913V93.9778C57.6101 95.1836 58.5876 96.1611 59.7934 96.1611H61.3702C62.576 96.1611 63.5535 95.1836 63.5535 93.9778V92.0168C62.8281 92.1196 62.0874 91.6038 61.8364 90.7826C61.6316 90.1126 61.8107 89.4289 62.2415 89.0258C61.7676 88.7062 61.1965 88.5195 60.5818 88.5195Z" fill="#818392"/>
</svg>
