<svg width="124" height="124" viewBox="0 0 124 124" fill="none" xmlns="http://www.w3.org/2000/svg">
<g clip-path="url(#clip0_1809_4840)">
<path fill-rule="evenodd" clip-rule="evenodd" d="M14.9657 29.5865C18.453 27.8735 23.005 32.6225 26.3726 35.33C30.0103 38.2533 42.7522 38.18 46.6135 35.4359C48.9836 33.7506 53.5189 28.1872 56.0848 29.1006C58.9091 30.106 59.7453 51.7353 65.7531 65.7538C80.6809 100.587 77.9329 128.005 36.7919 123.675C-4.95464 129.374 -5.44844 92.2439 7.36765 63.1353C12.3175 51.8927 13.3932 29.7765 14.9657 29.5865Z" fill="#E59345"/>
<path fill-rule="evenodd" clip-rule="evenodd" d="M30.0439 123.915C34.3605 118.004 26.5675 116.779 21.5147 111.114C15.5356 104.41 13.2358 58.2851 31.842 52.9087C32.0864 52.7959 32.3684 52.69 32.6762 52.594C33.5243 52.1012 34.9216 51.9359 36.3753 51.9914C37.828 51.9359 39.2253 52.1012 40.0733 52.594C40.3811 52.69 40.6621 52.7959 40.9086 52.9087C59.5483 58.6334 61.478 102.999 50.3007 112.645C46.3948 116.016 38.3901 118.004 42.7076 123.915C35.7805 124.374 36.5653 124.373 30.0439 123.915Z" fill="#FFBF6B"/>
<path fill-rule="evenodd" clip-rule="evenodd" d="M13.1665 37.3811L13.1754 37.3208C13.402 35.8186 13.6108 34.4658 13.8107 33.3278L14.069 31.973L14.1868 31.981C15.4485 32.1937 16.4311 33.2704 16.4777 34.5984C16.5301 36.1164 15.3396 37.392 13.8216 37.4445C13.6316 37.4514 13.4456 37.4385 13.2655 37.4078L13.1665 37.3811Z" fill="#FFBF6B"/>
<path fill-rule="evenodd" clip-rule="evenodd" d="M55.8464 34.481C55.8068 33.3429 56.4669 32.3405 57.4396 31.8892L57.5614 31.8457L57.9414 33.2806C58.0839 33.8783 58.2254 34.5285 58.3679 35.2241L58.74 37.1311L58.6925 37.137C57.1744 37.1895 55.8989 35.999 55.8464 34.481Z" fill="#FFBF6B"/>
<path fill-rule="evenodd" clip-rule="evenodd" d="M79.12 118.29C74.5528 118.569 70.5694 116.634 67.6956 113.793C64.8453 110.974 62.9302 107.132 62.4094 103.137C62.1447 101.106 63.5792 99.2419 65.61 98.9771C67.6409 98.7124 69.5048 100.147 69.7695 102.178C70.3624 106.727 74.1378 111.158 78.6693 110.882C81.6373 110.702 83.8709 108.548 84.5517 105.986C85.1665 103.671 84.4989 101.24 81.43 99.8835C79.5573 99.0554 78.7094 96.8624 79.5379 94.9883C80.366 93.1155 82.559 92.2677 84.4331 93.0961C91.1328 96.0598 93.1931 102.361 91.7242 107.891C90.3267 113.154 85.6661 117.891 79.12 118.29Z" fill="#E59345"/>
<path fill-rule="evenodd" clip-rule="evenodd" d="M54.8994 48.2478C54.8994 45.2702 52.4779 42.8486 49.5002 42.8486C46.5216 42.8486 44.1011 45.2702 44.1011 48.2478C44.1011 51.2265 46.5216 53.647 49.5002 53.647C52.4779 53.647 54.8994 51.2265 54.8994 48.2478Z" fill="white"/>
<path fill-rule="evenodd" clip-rule="evenodd" d="M49.2696 50.0418C50.2572 50.0418 51.0588 50.8433 51.0588 51.831C51.0588 52.8186 50.2572 53.6201 49.2696 53.6201C48.282 53.6201 47.4805 52.8186 47.4805 51.831C47.4805 50.8433 48.282 50.0418 49.2696 50.0418Z" fill="#9A530F"/>
<path fill-rule="evenodd" clip-rule="evenodd" d="M27.0969 48.2488C27.0969 45.2711 24.6754 42.8496 21.6977 42.8496C18.7191 42.8496 16.2986 45.2711 16.2986 48.2488C16.2986 51.2274 18.7191 53.6479 21.6977 53.6479C24.6754 53.6479 27.0969 51.2274 27.0969 48.2488Z" fill="white"/>
<path fill-rule="evenodd" clip-rule="evenodd" d="M21.8326 50.0418C22.8202 50.0418 23.6218 50.8433 23.6218 51.831C23.6218 52.8186 22.8202 53.6201 21.8326 53.6201C20.845 53.6201 20.0435 52.8186 20.0435 51.831C20.0435 50.8433 20.845 50.0418 21.8326 50.0418Z" fill="#9A530F"/>
<path d="M24.8376 71.8535C24.8376 69.6444 26.6285 67.8535 28.8376 67.8535H43.5981C45.8072 67.8535 47.5981 69.6444 47.5981 71.8535V98.4889C47.5981 100.698 45.8072 102.489 43.5981 102.489H28.8376C26.6285 102.489 24.8376 100.698 24.8376 98.4889V71.8535Z" fill="#E9EBF8"/>
<path d="M32.4609 82.3682C32.7982 82.0011 33.8101 81.4138 35.1592 82.0011C36.5083 82.5885 36.3959 83.4696 36.171 83.8367C35.1592 84.2038 35.1592 83.1025 34.4846 82.7354C33.945 82.4417 32.9106 82.3683 32.4609 82.3682Z" fill="#818392"/>
<path d="M39.6811 82.3682C39.3438 82.0011 38.332 81.4138 36.9828 82.0011C35.6337 82.5885 35.7461 83.4696 35.971 83.8367C36.9828 84.2038 36.9828 83.1025 37.6574 82.7354C38.197 82.4417 39.2314 82.3683 39.6811 82.3682Z" fill="#818392"/>
<path d="M38.0896 80.2169C37.628 80.0967 36.4822 80.1433 35.5917 81.2915C34.7012 82.4397 35.2078 83.081 35.5724 83.2581C36.6158 83.0369 36.1038 82.1642 36.5149 81.5319C36.8438 81.0261 37.7017 80.4445 38.0896 80.2169Z" fill="#818392"/>
<path d="M36.171 83.7759C34.8671 83.7759 33.8101 84.8329 33.8101 86.1369V88.1124C33.8101 89.0704 34.5867 89.847 35.5447 89.847H36.7974C37.7554 89.847 38.532 89.0704 38.532 88.1124V86.7362C38.0087 86.7452 37.4963 86.3456 37.3109 85.7392C37.1408 85.1826 37.2965 84.6164 37.6626 84.3066C37.256 83.9748 36.7367 83.7759 36.171 83.7759Z" fill="#818392"/>
<circle cx="28.7958" cy="71.8122" r="1.97917" fill="#242424"/>
<circle cx="28.7958" cy="71.8123" r="0.989583" fill="#6C6C6C"/>
<circle cx="28.7958" cy="76.7599" r="1.97917" fill="#242424"/>
<circle cx="28.7958" cy="76.7596" r="0.989583" fill="#6C6C6C"/>
<path fill-rule="evenodd" clip-rule="evenodd" d="M13.9567 82.0388C17.0837 89.3509 29.7613 86.4296 30.5173 88.7067C32.0255 93.2498 19.3865 96.9172 15.6765 96.0197C15.6765 96.0197 15.1392 96.0197 15.0313 96.0197C11.6489 94.1038 11.4243 85.7963 12.6652 82.685C13.1145 82.4594 13.8023 82.5168 13.9567 82.0388Z" fill="#E59345"/>
<path fill-rule="evenodd" clip-rule="evenodd" d="M58.5085 82.0403C55.3814 89.3513 42.7039 86.4301 41.9478 88.7071C40.4397 93.2503 53.0777 96.9167 56.7876 96.0192C56.7876 96.0192 57.3259 96.0192 57.4328 96.0192C60.8152 94.1043 61.0399 85.7968 59.7989 82.6855C59.3496 82.4599 58.6619 82.5183 58.5085 82.0403Z" fill="#E59345"/>
<path fill-rule="evenodd" clip-rule="evenodd" d="M52.1542 58.1686L46.0692 56.5516C45.7724 56.4725 45.5952 56.1677 45.6744 55.8708C45.7536 55.5739 46.0584 55.3968 46.3552 55.476L52.4402 57.0929C52.7371 57.1721 52.9142 57.4769 52.835 57.7738C52.7559 58.0707 52.4511 58.2478 52.1542 58.1686Z" fill="#FFBF6B"/>
<path fill-rule="evenodd" clip-rule="evenodd" d="M52.092 61.0751L45.6993 58.5329C45.4133 58.4191 45.2737 58.0955 45.3875 57.8105C45.5013 57.5245 45.8249 57.3849 46.1099 57.4987L52.5027 60.041C52.7886 60.1548 52.9282 60.4784 52.8144 60.7634C52.7006 61.0494 52.377 61.1889 52.092 61.0751Z" fill="#FFBF6B"/>
<path fill-rule="evenodd" clip-rule="evenodd" d="M18.4837 57.5453C18.4046 57.2484 18.5817 56.9436 18.8786 56.8644L24.9635 55.2465C25.2604 55.1673 25.5652 55.3444 25.6443 55.6413C25.7235 55.9382 25.5464 56.243 25.2495 56.3221L19.1646 57.9401C18.8677 58.0193 18.5629 57.8421 18.4837 57.5453Z" fill="#FFBF6B"/>
<path fill-rule="evenodd" clip-rule="evenodd" d="M18.5045 60.5339C18.3907 60.2489 18.5302 59.9243 18.8162 59.8115L25.2089 57.2702C25.4939 57.1564 25.8185 57.296 25.9313 57.582C26.0451 57.867 25.9056 58.1915 25.6196 58.3044L19.2269 60.8456C18.9419 60.9594 18.6173 60.8199 18.5045 60.5339Z" fill="#FFBF6B"/>
<path fill-rule="evenodd" clip-rule="evenodd" d="M24.8665 41.0698V38.682C24.8665 38.3752 25.1158 38.1258 25.4236 38.1258C25.7304 38.1258 25.9797 38.3752 25.9797 38.682V41.0698C25.9797 41.3776 25.7304 41.627 25.4236 41.627C25.1158 41.627 24.8665 41.3776 24.8665 41.0698Z" fill="#FFBF6B"/>
<path fill-rule="evenodd" clip-rule="evenodd" d="M22.7104 40.6846V38.2967C22.7104 37.9899 22.9598 37.7406 23.2676 37.7406C23.5744 37.7406 23.8237 37.9899 23.8237 38.2967V40.6846C23.8237 40.9923 23.5744 41.2417 23.2676 41.2417C22.9598 41.2417 22.7104 40.9923 22.7104 40.6846Z" fill="#FFBF6B"/>
<path fill-rule="evenodd" clip-rule="evenodd" d="M46.1565 41.0698V38.682C46.1565 38.3752 46.4059 38.1258 46.7136 38.1258C47.0204 38.1258 47.2698 38.3752 47.2698 38.682V41.0698C47.2698 41.3776 47.0204 41.627 46.7136 41.627C46.4059 41.627 46.1565 41.3776 46.1565 41.0698Z" fill="#FFBF6B"/>
<path fill-rule="evenodd" clip-rule="evenodd" d="M48.3127 40.6846V38.2967C48.3127 37.9899 48.5621 37.7406 48.8699 37.7406C49.1767 37.7406 49.426 37.9899 49.426 38.2967V40.6846C49.426 40.9923 49.1767 41.2417 48.8699 41.2417C48.5621 41.2417 48.3127 40.9923 48.3127 40.6846Z" fill="#FFBF6B"/>
<path fill-rule="evenodd" clip-rule="evenodd" d="M35.4085 52.3958C34.0627 52.3572 32.7831 51.9 31.8866 51.2044C31.6441 51.0153 31.6006 50.666 31.7886 50.4226C31.9776 50.1801 32.3269 50.1366 32.5704 50.3246C33.2631 50.8639 34.3091 51.2499 35.4411 51.2825C36.5643 51.3152 37.7409 50.9975 38.7226 50.1722C38.9581 49.9743 39.3094 50.005 39.5073 50.2395C39.7053 50.475 39.6746 50.8263 39.4401 51.0242C38.2189 52.0514 36.7632 52.4344 35.4085 52.3958Z" fill="#9A530F"/>
<path fill-rule="evenodd" clip-rule="evenodd" d="M38.3873 57.0803C36.5823 56.5598 34.9584 54.8389 35.3641 52.2402C35.4116 51.9364 35.6956 51.7286 35.9994 51.7761C36.3032 51.8236 36.511 52.1076 36.4635 52.4114C36.1567 54.3807 37.3403 55.6197 38.696 56.0106C39.3798 56.2075 40.0705 56.1728 40.6029 55.9264C41.1155 55.6899 41.5143 55.2456 41.644 54.5242C41.6984 54.2214 41.9874 54.0205 42.2902 54.0749C42.593 54.1294 42.7939 54.4183 42.7394 54.7211C42.5445 55.8077 41.9062 56.5519 41.069 56.9378C40.2516 57.3148 39.2799 57.3376 38.3873 57.0803Z" fill="#9A530F"/>
<path fill-rule="evenodd" clip-rule="evenodd" d="M30.4755 56.9388C29.6383 56.5528 29 55.8087 28.805 54.7221C28.7506 54.4193 28.9515 54.1303 29.2543 54.0759C29.5571 54.0215 29.8461 54.2224 29.9005 54.5252C30.0301 55.2466 30.4289 55.6909 30.9416 55.9274C31.4739 56.1738 32.1647 56.2085 32.8495 56.0115C34.1983 55.6226 35.3887 54.3866 35.081 52.4134C35.0335 52.1096 35.2413 51.8256 35.5451 51.7781C35.8489 51.7306 36.1329 51.9384 36.1804 52.2422C36.5871 54.8458 34.9563 56.5627 33.1572 57.0813C32.2646 57.3386 31.2929 57.3158 30.4755 56.9388Z" fill="#9A530F"/>
<path fill-rule="evenodd" clip-rule="evenodd" d="M33.2879 56.8664C33.0801 57.2988 33.0623 57.9044 33.3878 58.8614C33.7194 59.8391 34.2923 60.5051 35.4115 60.6654C38.1893 61.0622 38.6495 58.3596 38.2061 56.5161C37.3679 56.141 36.1854 54.9891 35.9895 54.1252C35.4264 55.7729 33.7926 55.8105 33.2879 56.8664Z" fill="#9A530F"/>
<rect x="68.1501" y="2" width="56" height="73" rx="4" fill="#F4F4F4"/>
<rect x="73.1501" y="6" width="46" height="31" fill="#D9D9D9"/>
<rect x="73.1501" y="40" width="46" height="6" fill="#D9D9D9"/>
<rect x="73.1501" y="48" width="46" height="6" fill="#D9D9D9"/>
<rect x="73.1501" y="56" width="46" height="6" fill="#D9D9D9"/>
<rect x="73.1501" y="64" width="26" height="6" fill="#D9D9D9"/>
<path d="M70.1501 70V61C70.1501 65.5 65.6501 68 58.1501 71C65.1501 71.5 68.8168 71 70.1501 70Z" fill="#F4F4F4"/>
<g opacity="0.5">
<mask id="mask0_1809_4840" style="mask-type:alpha" maskUnits="userSpaceOnUse" x="84" y="9" width="25" height="24">
<rect x="84.1501" y="9" width="24" height="24" fill="#D9D9D9"/>
</mask>
<g mask="url(#mask0_1809_4840)">
<path d="M89.1501 30C88.6001 30 88.1293 29.8042 87.7376 29.4125C87.346 29.0208 87.1501 28.55 87.1501 28V14C87.1501 13.45 87.346 12.9792 87.7376 12.5875C88.1293 12.1958 88.6001 12 89.1501 12H103.15C103.7 12 104.171 12.1958 104.563 12.5875C104.954 12.9792 105.15 13.45 105.15 14V28C105.15 28.55 104.954 29.0208 104.563 29.4125C104.171 29.8042 103.7 30 103.15 30H89.1501ZM89.1501 28H103.15V14H89.1501V28ZM91.1501 26H101.15C101.35 26 101.5 25.9083 101.6 25.725C101.7 25.5417 101.683 25.3667 101.55 25.2L98.8001 21.525C98.7001 21.3917 98.5668 21.325 98.4001 21.325C98.2335 21.325 98.1001 21.3917 98.0001 21.525L95.4001 25L93.5501 22.525C93.4501 22.3917 93.3168 22.325 93.1501 22.325C92.9835 22.325 92.8501 22.3917 92.7501 22.525L90.7501 25.2C90.6168 25.3667 90.6001 25.5417 90.7001 25.725C90.8001 25.9083 90.9501 26 91.1501 26Z" fill="#788394"/>
</g>
</g>
</g>
<defs>
<clipPath id="clip0_1809_4840">
<rect width="124" height="124" fill="white"/>
</clipPath>
</defs>
</svg>
