<svg width="334" height="233" viewBox="0 0 334 233" fill="none" xmlns="http://www.w3.org/2000/svg">
<g clip-path="url(#clip0_459_2160)">
<path d="M171 33.5066C171 39.074 173.601 44.0367 177.648 47.2435C180.628 49.6092 184.395 51.0127 188.499 51.0127C192.593 51.0127 196.361 49.6092 199.35 47.2435C203.402 44.0367 205.998 39.074 205.998 33.5066C205.998 23.8385 198.163 16 188.499 16C178.835 16 171 23.8385 171 33.5066Z" fill="#5E49E7" stroke="#5E49E7" stroke-miterlimit="10"/>
<path d="M187.793 33.4367C184.654 33.049 182.422 30.1885 182.81 27.0475C183.197 23.9066 186.057 21.6747 189.197 22.0624C192.337 22.4501 194.568 25.3106 194.18 28.4515C193.793 31.5925 190.933 33.8244 187.793 33.4367Z" fill="white"/>
<path d="M177.648 45.0356C180.628 47.4012 184.395 48.8053 188.499 48.8053C192.593 48.8053 196.361 47.4018 199.351 45.0356C198.231 40.1094 197.201 35.8566 196.129 34.779C194.616 33.2651 190.596 32.3818 188.505 32.3818C186.414 32.3818 182.204 33.4543 181.427 34.2324C179.839 35.8144 178.473 40.1832 177.648 45.0356Z" fill="white"/>
<path d="M158.576 110.092V98.7311C158.576 95.6302 156.064 93.1174 152.965 93.1174H117.187C114.087 93.1174 111.576 95.6302 111.576 98.7311V110.092C111.576 113.193 114.087 115.706 117.187 115.706H152.958C156.058 115.712 158.576 113.193 158.576 110.092Z" fill="#5E49E7"/>
<path d="M143.467 109.497L160.781 126.372L132.719 112.184" fill="#5E49E7"/>
<path d="M154.234 98.4504V98.3903C154.234 97.9292 153.86 97.5549 153.399 97.5549H135.711C135.25 97.5549 134.876 97.9292 134.876 98.3903V98.4504C134.876 98.9116 135.25 99.2858 135.711 99.2858H153.399C153.86 99.2858 154.234 98.9116 154.234 98.4504Z" fill="white"/>
<path d="M134.08 98.4504V98.3903C134.08 97.9292 133.706 97.5549 133.245 97.5549H117.808C117.347 97.5549 116.973 97.9292 116.973 98.3903V98.4504C116.973 98.9116 117.347 99.2858 117.808 99.2858H133.245C133.706 99.2858 134.08 98.9116 134.08 98.4504Z" fill="white"/>
<path d="M140.821 102.253V102.193C140.821 101.732 140.447 101.357 139.986 101.357H117.809C117.348 101.357 116.974 101.732 116.974 102.193V102.253C116.974 102.714 117.348 103.088 117.809 103.088H139.986C140.447 103.088 140.821 102.714 140.821 102.253Z" fill="white"/>
<path d="M154.234 102.253V102.193C154.234 101.732 153.86 101.357 153.399 101.357H143.493C143.032 101.357 142.658 101.732 142.658 102.193V102.253C142.658 102.714 143.032 103.088 143.493 103.088H153.399C153.86 103.088 154.234 102.714 154.234 102.253Z" fill="white"/>
<path d="M137.741 106.056V105.996C137.741 105.534 137.367 105.16 136.906 105.16H117.808C117.347 105.16 116.973 105.534 116.973 105.996V106.056C116.973 106.517 117.347 106.891 117.808 106.891H136.906C137.367 106.891 137.741 106.517 137.741 106.056Z" fill="white"/>
<path d="M154.234 106.056V105.996C154.234 105.534 153.86 105.16 153.399 105.16H140.206C139.745 105.16 139.371 105.534 139.371 105.996V106.056C139.371 106.517 139.745 106.891 140.206 106.891H153.399C153.86 106.891 154.234 106.517 154.234 106.056Z" fill="white"/>
<path d="M154.234 109.858V109.798C154.234 109.337 153.86 108.963 153.399 108.963H148.503C148.042 108.963 147.668 109.337 147.668 109.798V109.858C147.668 110.319 148.042 110.694 148.503 110.694H153.399C153.86 110.694 154.234 110.319 154.234 109.858Z" fill="white"/>
<path d="M145.938 109.858V109.798C145.938 109.337 145.564 108.963 145.103 108.963H117.809C117.348 108.963 116.974 109.337 116.974 109.798V109.858C116.974 110.319 117.348 110.694 117.809 110.694H145.103C145.564 110.694 145.938 110.319 145.938 109.858Z" fill="white"/>
<path d="M266.124 85.7304C262.19 76.6307 266.374 66.0631 275.47 62.1269C284.565 58.1908 295.128 62.3767 299.063 71.4764C302.997 80.5761 298.813 91.1437 289.717 95.0799C280.622 99.016 270.059 94.8301 266.124 85.7304Z" fill="#5E49E7"/>
<path d="M281.99 63.3062H283.188V78.3823H281.99V63.3062Z" fill="white"/>
<path d="M295.831 87.086L295.149 88.0718L282.591 79.3752L283.273 78.3894L295.831 87.086Z" fill="white"/>
<path d="M280.939 78.6046C280.939 79.5173 281.678 80.2568 282.591 80.2568C283.503 80.2568 284.242 79.5173 284.242 78.6046C284.242 77.6919 283.503 76.9524 282.591 76.9524C281.678 76.9524 280.939 77.6925 280.939 78.6046Z" fill="white"/>
<path d="M176.071 188.978C176.071 188.978 174.608 202.39 172.971 203.466C170.045 205.398 136.178 209.862 136.178 209.862L137.287 218.677C137.287 218.677 183.672 222.847 185.643 220.528C189.063 216.505 195.075 197.097 195.075 197.097L176.071 188.978Z" fill="#E06A58"/>
<path d="M198.436 154.447L194.688 145.445C194.688 145.445 184.521 150.223 181.168 156.124C177.581 162.433 173.192 195.975 173.192 195.975C173.192 195.975 191.141 200.111 194.441 198.354C197.741 196.596 198.436 154.447 198.436 154.447Z" fill="#6E5BED"/>
<path d="M226.98 112.665C229.605 111.703 232.384 110.861 235.196 111.075C238.008 111.288 240.881 112.779 241.836 115.251C242.517 117.002 242.203 119.067 243.279 120.645C244.308 122.155 246.352 122.783 248.262 122.91C250.179 123.044 252.11 122.79 254.014 123.037C259.892 123.819 264.087 130.208 262.157 135.441C261.388 137.526 259.812 139.517 260.173 141.689C260.553 144.015 262.992 145.545 263.994 147.704C265.323 150.577 263.733 154.059 261.108 156.017C258.483 157.969 255.069 158.711 251.756 159.205C247.193 159.887 242.484 160.208 237.975 159.245C233.466 158.283 229.157 155.904 226.826 152.188C225.791 150.544 225.163 148.686 223.96 147.142C221.475 143.955 217.073 142.718 213.606 140.459C209.819 137.98 207.04 133.155 209.271 129.379C211.422 125.75 217.02 124.942 219.264 121.366C220.193 119.889 220.413 118.132 221.014 116.521C221.629 114.904 223.099 114.089 226.98 112.665Z" fill="#0A2240"/>
<path d="M211.682 157.18C211.021 157.942 210.239 158.777 209.157 158.851C208.015 158.931 207.06 158.122 206.325 157.34C202.531 153.324 200.026 148.392 199.01 143.306C199.952 142.772 200.861 142.257 201.682 141.776C202.444 141.321 203.018 140.687 203.346 139.945C203.573 139.397 203.653 138.822 203.593 138.221C203.058 133.195 202.584 130.395 200.821 125.296C209.197 123.404 217.1 121.159 221.642 117.363C222.197 119.702 222.851 124.28 224.247 128.818C225.737 133.623 228.062 138.374 232.003 140.419C224.267 144.99 217.367 150.671 211.682 157.18Z" fill="#F9A07B"/>
<path d="M203.593 138.227C203.653 138.829 203.572 139.41 203.345 139.951C208.302 145.966 219.384 138.107 224.247 128.824C222.851 124.286 222.196 119.709 221.642 117.37C217.106 121.166 209.197 123.418 200.82 125.302C202.584 130.401 203.058 133.195 203.593 138.227Z" fill="#E06A58"/>
<path d="M189.792 210.938C190.888 218.195 183.059 226.008 182.865 229.884C199.492 229.884 234.321 230.9 252.057 228.487C252.865 224.01 244.107 213.938 244.107 203.994C244.107 202.678 244.161 201.234 244.268 199.684C244.548 195.246 245.203 189.967 245.931 184.554C247.908 170.032 250.54 154.5 248.596 151.279C244.789 145.004 235.884 140.74 231.469 138.909C229.953 138.281 228.964 137.94 228.89 137.9C223.353 147.35 212.084 155.409 207.828 155.048C206.646 154.955 203.139 153.732 200.821 142.057C199.919 142.571 199.017 143.046 198.122 143.507C193.72 145.799 189.592 147.69 188.403 150.638C185.263 158.396 182.184 177.957 182.865 184.914C183.553 191.931 186.372 197.291 188.35 204.335C188.81 205.986 189.231 207.737 189.572 209.621C189.659 210.042 189.726 210.483 189.792 210.938Z" fill="#8A79F8"/>
<path d="M182.865 229.884C199.492 229.884 234.321 230.9 252.057 228.487C252.865 224.01 244.107 213.939 244.107 203.994C244.107 202.678 244.161 201.234 244.268 199.684C244.548 195.246 245.203 189.967 245.931 184.554C242.785 187.875 238.196 173.841 236.165 177.951C225.176 200.138 216.512 205.973 201.456 205.973C196.967 205.973 192.825 205.351 188.35 204.335C188.81 205.986 189.231 207.737 189.572 209.621C189.652 210.049 189.726 210.49 189.792 210.945C190.888 218.189 183.059 226.001 182.865 229.884Z" fill="#8A79F8"/>
<path d="M198.122 143.507C198.837 148.7 200.955 155.697 207.113 157.541C215.437 160.034 227.481 144.476 231.469 138.909C229.952 138.281 228.964 137.94 228.89 137.9C223.353 147.35 212.083 155.409 207.828 155.048C206.646 154.955 203.139 153.732 200.821 142.057C199.919 142.565 199.017 143.039 198.122 143.507Z" fill="#5E49E7"/>
<path d="M194.702 222.072L194.762 227.866L91.2217 228.48L91.0079 221.911L194.702 222.072Z" fill="#325F73"/>
<path d="M46.345 170.379L48.6496 168.04L124.067 167.545L161.902 222.285L159.925 223.876L46.345 170.379Z" fill="#325F73"/>
<path d="M122.61 169.57L159.925 223.876L88.6492 224.23L46.3448 170.379L122.61 169.57Z" fill="#0B2D50"/>
<path d="M104.602 204.235C100.02 204.235 96.3053 202.377 96.3053 200.085C96.3053 197.793 100.02 195.935 104.602 195.935C109.184 195.935 112.898 197.793 112.898 200.085C112.898 202.377 109.184 204.235 104.602 204.235Z" fill="#3C738C"/>
<path d="M193.17 115.962C191.994 109.652 187.67 105.165 183.509 105.941C179.349 106.716 176.93 112.46 178.105 118.77C179.281 125.08 183.606 129.566 187.766 128.791C191.926 128.016 194.345 122.272 193.17 115.962Z" fill="#4431C3"/>
<path d="M178.095 98.9649C178.869 104.458 181.321 110.513 184.895 117.203C186.151 111.723 186.952 105.046 188.061 98.3701C189.19 91.6805 190.626 84.9909 193.118 79.5242C193.679 78.3146 194.287 77.1585 194.948 76.0892C193.472 75.9488 191.976 76.0892 190.553 76.4835C188.328 77.0783 186.244 78.2277 184.541 79.7648C181.708 82.2843 179.811 85.7193 178.682 89.3415C177.754 92.3488 177.587 95.5432 178.095 98.9649Z" fill="#0B2D50"/>
<path d="M182.29 104.646C182.33 105.728 182.403 106.831 182.504 107.927C184.027 125.704 191.488 137.9 202.904 137.9C219.023 137.9 229.471 119.816 229.471 102.099C229.471 84.6234 218.769 71.9726 206.244 73.4362C199.023 74.2649 193.746 76.6641 189.999 80.1793C187.52 82.5183 185.73 85.3452 184.508 88.5597C183.112 92.1618 182.437 96.2384 182.297 100.629C182.297 100.642 182.283 100.656 182.283 100.669C182.23 101.966 182.243 103.289 182.29 104.646Z" fill="#F9A07B"/>
<path d="M182.29 104.645C182.771 102.928 183.486 101.25 184.461 99.7468C193.967 104.719 205.296 106.637 216.038 104.819C218.082 106.523 220.079 108.201 222.09 109.878C222.05 101.792 221.936 96.3185 218.783 92.4023C215.824 88.7266 210.887 87.3433 206.211 86.7418C200.948 86.0535 195.597 86.0802 190.346 86.8421C188.336 87.1227 186.252 87.5571 184.501 88.5729C183.105 92.1751 182.431 96.2516 182.29 100.642C182.29 100.656 182.277 100.669 182.277 100.682C182.23 101.966 182.244 103.289 182.29 104.645Z" fill="#E06A58"/>
<path d="M179.965 93.6987C182.176 95.5699 184.948 97.1204 188.061 98.3768C196.919 101.952 208.429 103.135 217.4 102.701C221.809 112.391 223.592 115.866 224.721 124.32C229.03 120.277 232.537 112.872 233.579 107.051C234.608 101.25 234.507 95.1623 232.891 89.4617C230.346 80.4732 223.926 75.6614 219.477 73.3224C218.369 72.7143 217.367 72.2932 216.592 71.9858C210.907 69.7871 204.501 69.9876 198.669 71.772C195.49 72.761 192.811 74.4318 190.56 76.4901C186.011 80.6001 183.198 86.167 181.381 90.3372C180.807 91.6136 180.346 92.7698 179.965 93.6987Z" fill="#0B2D50"/>
<path d="M178.095 98.965C178.462 97.0202 179.01 95.1356 179.785 93.3179C180.219 92.2887 180.753 91.2929 181.375 90.3306C183.399 87.1495 186.344 84.5298 189.905 83.3737C190.92 81.9502 191.989 80.6671 193.111 79.531C197.153 75.4209 201.895 73.0686 206.919 72.2466C211.101 71.5716 215.449 71.9525 219.464 73.3158C218.355 72.7077 217.353 72.2866 216.578 71.9792C210.893 69.7805 204.487 69.981 198.656 71.7654C195.476 72.7545 192.797 74.4252 190.546 76.4835C188.322 77.0783 186.238 78.2278 184.534 79.7649C181.702 82.2843 179.805 85.7194 178.676 89.3415C177.754 92.3488 177.587 95.5433 178.095 98.965Z" fill="#0B2D50"/>
<path d="M212.263 109.865C209.283 108.161 206.191 107.392 201.855 108.976" stroke="#0B2D50" stroke-width="2" stroke-miterlimit="10" stroke-linecap="round"/>
<path d="M191.862 109.745C189.311 107.84 185.53 107.646 183.559 109.745" stroke="#0B2D50" stroke-width="2" stroke-miterlimit="10" stroke-linecap="round"/>
<path d="M194.941 119.462C194.68 120.812 194.821 123.799 195.462 125.142" stroke="#CC454E" stroke-width="2" stroke-miterlimit="10" stroke-linecap="round"/>
<path d="M205.008 120.37C204.329 120.37 203.779 119.503 203.779 118.432C203.779 117.362 204.329 116.494 205.008 116.494C205.687 116.494 206.237 117.362 206.237 118.432C206.237 119.503 205.687 120.37 205.008 120.37Z" fill="#262D40"/>
<path d="M188.943 119.468C188.264 119.468 187.714 118.601 187.714 117.53C187.714 116.46 188.264 115.592 188.943 115.592C189.622 115.592 190.172 116.46 190.172 117.53C190.172 118.601 189.622 119.468 188.943 119.468Z" fill="#262D40"/>
<path d="M196.465 127.782C196.465 127.782 196.705 128.25 197.166 128.885C197.887 129.854 199.117 131.19 200.793 131.712H200.8C201.508 131.939 202.276 132.019 203.131 131.865C205.643 131.418 206.304 129.099 206.424 127.314C206.451 126.967 206.451 126.646 206.445 126.352C206.431 125.63 206.351 125.149 206.351 125.149C202.35 127.354 196.465 127.782 196.465 127.782Z" fill="#CC454E"/>
<path d="M196.464 127.782C196.464 127.782 196.705 128.25 197.166 128.885C199.21 128.858 203.392 127.809 206.444 126.352C206.431 125.63 206.351 125.149 206.351 125.149C202.349 127.354 196.464 127.782 196.464 127.782Z" fill="white"/>
<path d="M200.8 131.705C201.508 131.932 202.277 132.012 203.132 131.859C205.643 131.411 206.305 129.092 206.425 127.308C205.209 127.455 204.033 127.922 203.058 128.664C202.036 129.446 201.254 130.509 200.8 131.705Z" fill="#E8729B"/>
<path d="M224.681 106.797C224.681 106.797 224.821 98.4637 221.354 90.1835C217.006 79.7915 208.141 75.3473 199.544 75.0466C189.183 74.679 182.697 81.636 182.697 81.636C182.697 81.636 186.07 75.6815 192.724 73.9707C197.092 72.8479 203.686 72.6675 208.976 74.8194C214.427 77.0314 221.221 83.1731 223.679 89.6622C226.13 96.1514 227.326 106.256 227.326 106.256L224.681 106.797Z" fill="#5E49E7"/>
<path d="M224.859 128.49C220.423 128.029 217.393 122.203 218.092 115.478C218.79 108.754 222.953 103.676 227.389 104.137C231.826 104.599 234.855 110.424 234.157 117.149C233.458 123.874 229.295 128.952 224.859 128.49Z" fill="#4431C3"/>
<path d="M229.637 108.081C226.773 107.65 223.837 111.387 223.08 116.428C222.323 121.468 224.031 125.903 226.895 126.334C229.759 126.764 232.695 123.027 233.452 117.987C234.208 112.946 232.5 108.511 229.637 108.081Z" fill="#261881"/>
<path d="M199.476 138.147C197.101 138.147 195.174 136.947 195.174 135.467C195.174 133.987 197.101 132.787 199.476 132.787C201.852 132.787 203.778 133.987 203.778 135.467C203.778 136.947 201.852 138.147 199.476 138.147Z" fill="#513DCE"/>
<path d="M221.087 126.505C221.087 126.505 214.768 134.632 203.779 135.467" stroke="#513DCE" stroke-width="2" stroke-miterlimit="10" stroke-linecap="round"/>
<path d="M194.762 206.601L195.177 217.287C195.177 217.287 233.807 228.868 240.186 225.206C243.299 223.415 246.205 213.565 248.376 203.948C250.647 193.843 252.104 184.006 252.104 184.006L229.458 179.568C229.458 179.568 229.445 193.382 228.677 201.368C228.403 204.342 228.009 206.507 227.481 206.862C225.484 208.178 194.762 206.601 194.762 206.601Z" fill="#F9A07B"/>
<path d="M228.677 201.355C232.792 202.691 240.734 204.756 248.376 203.941C250.647 193.836 252.104 183.999 252.104 183.999L229.458 179.562C229.458 179.555 229.445 193.368 228.677 201.355Z" fill="#E06A58"/>
<path d="M195.865 206.707C190.12 205.478 180.394 202.524 176.359 201.508C173.493 200.786 166.032 204.649 164.061 208.291C163.199 209.882 162.384 218.89 165.37 217.962C166.867 217.494 166.619 213.631 167.087 212.054C167.468 210.771 168.684 209.528 170.534 208.458C169.298 211.539 169.345 214.226 169.479 217.554C169.505 218.289 169.552 219.058 169.906 219.692C170.267 220.327 171.042 220.782 171.71 220.501C172.391 220.22 172.625 219.372 172.778 218.63C173.306 216.064 173.841 213.497 174.054 210.597C174.001 213.451 174.061 216.311 174.241 219.158C174.375 221.336 175.457 222.533 176.786 222.152C177.381 221.985 177.621 221.437 177.875 220.715C178.276 222.112 179.278 223.655 180.574 223.067C181.362 222.713 181.85 219.866 181.71 216.939C184.195 218.483 187 219.138 190.233 219.285C193.132 219.418 196.098 218.877 197.842 216.906C197.668 213.825 196.653 209.267 195.865 206.707Z" fill="#F9A07B"/>
<path d="M177.816 220.274C177.622 217.962 177.822 215.616 178.41 213.384" stroke="#CC454E" stroke-miterlimit="10" stroke-linecap="round"/>
<path d="M232.003 157.154C233.646 152.522 239.665 143.046 239.665 143.046C239.665 143.046 248.85 146.869 252.11 153.358C257.628 164.344 254.822 195.888 254.822 195.888C247.387 199.002 232.464 199.049 226.111 198.153C226.111 198.153 228.71 166.409 232.003 157.154Z" fill="#8A79F8"/>
<path d="M230.834 159.092C228.329 171.088 226.986 182.275 226.559 193.235" stroke="#6E5BED" stroke-miterlimit="10" stroke-linecap="round"/>
<path d="M34.242 226.576H297.621V233.185H34.242V226.576Z" fill="#0B2D50"/>
</g>
<defs>
<clipPath id="clip0_459_2160">
<rect width="334" height="233" fill="white" transform="matrix(-1 0 0 1 334 0)"/>
</clipPath>
</defs>
</svg>
