<svg xmlns="http://www.w3.org/2000/svg" xmlns:xlink="http://www.w3.org/1999/xlink" viewBox="0 0 51.06 50.97"><defs><style>.cls-1{fill:none;}.cls-2{clip-path:url(#clip-path);}.cls-3{fill:#010101;}</style><clipPath id="clip-path" transform="translate(0.02 -0.04)"><rect class="cls-1" width="51" height="51"></rect></clipPath></defs><g id="Layer_2" data-name="Layer 2"><g id="Layer_1-2" data-name="Layer 1"><g class="cls-2"><path class="cls-3" d="M5.38,29.24a5.36,5.36,0,0,1-3.82-1.61,5.54,5.54,0,0,1,0-7.75,5.36,5.36,0,0,1,3.82-1.61,5.44,5.44,0,0,1,2.94.9l14.6,10H5.38Z" transform="translate(0.02 -0.04)"></path><path class="cls-3" d="M6.87,17a5.45,5.45,0,0,1-2.33-3.43,5.51,5.51,0,0,1,.74-4.1A5.32,5.32,0,0,1,12.7,7.85a5.66,5.66,0,0,1,2,2.37h0l7.47,17.29Z" transform="translate(0.02 -0.04)"></path><path class="cls-3" d="M45.64,29.24a5.34,5.34,0,0,0,3.82-1.61,5.54,5.54,0,0,0,0-7.75,5.34,5.34,0,0,0-3.82-1.61,5.5,5.5,0,0,0-3,.9h0L28.08,29.24Z" transform="translate(0.02 -0.04)"></path><path class="cls-3" d="M44.13,17a5.45,5.45,0,0,0,2.13-3.42,5.53,5.53,0,0,0-.78-4,5.38,5.38,0,0,0-3.26-2.34,5.27,5.27,0,0,0-3.94.58,5.66,5.66,0,0,0-2,2.37h0l-7.5,17.33L44.13,17Z" transform="translate(0.02 -0.04)"></path><path class="cls-3" d="M27.65,6.76a1.83,1.83,0,0,0-1.07.92,1.9,1.9,0,0,0-.14,1.42L28.6,25.23,36.14,7.68a5.58,5.58,0,0,0-.1-4A5.42,5.42,0,0,0,33.25.8,5.29,5.29,0,0,0,29.3.65a5.42,5.42,0,0,0-3,2.64,5.33,5.33,0,0,0-.39,2.76h1.41c.84,0,1.25.27.25.71Z" transform="translate(0.02 -0.04)"></path><path class="cls-3" d="M14.75,7.68a5.57,5.57,0,0,1-.09-4.17A5.48,5.48,0,0,1,17.5.5,5.3,5.3,0,0,1,21.6.41a5.39,5.39,0,0,1,3,2.88A5.87,5.87,0,0,1,25,6.36h0L22.29,25.23Z" transform="translate(0.02 -0.04)"></path><path class="cls-3" d="M47.52,50.28a9.49,9.49,0,0,1-8.9-.85,9.83,9.83,0,0,1-4.36-7.93,9.83,9.83,0,0,1,3-6.84A9.56,9.56,0,0,1,44.17,32a8.78,8.78,0,0,1,3.35.7h0v3.65a5.94,5.94,0,0,0-3.07-1,6.08,6.08,0,0,0-5.47,3A6.23,6.23,0,0,0,41.31,47a6,6,0,0,0,6.21-.24h0v3.56Z" transform="translate(0.02 -0.04)"></path><path class="cls-3" d="M14.67,32.55H18.3V50.76L7.09,40.36v10H3.46V32.16L14.67,42.55Z" transform="translate(0.02 -0.04)"></path><path class="cls-3" d="M30.5,40.82a4,4,0,0,0,2.16-3.73,4.74,4.74,0,0,0-.41-1.85,4.63,4.63,0,0,0-1.1-1.53,4.52,4.52,0,0,0-1.61-1,4.45,4.45,0,0,0-1.85-.23h-7.3V50.45h8.1a4.83,4.83,0,0,0,2-.37A4.91,4.91,0,0,0,32.08,49a5.06,5.06,0,0,0,1.45-3.65,5,5,0,0,0-.87-2.66,4.76,4.76,0,0,0-2.16-1.73ZM24,35.25h2.7a2.29,2.29,0,0,1,1.62.68,2.35,2.35,0,0,1,0,3.29,2.25,2.25,0,0,1-1.62.68H24V35.25Zm3.31,12.44H24V42.55h3.31a2.56,2.56,0,0,1,1,.2,2.79,2.79,0,0,1,.83.57,2.71,2.71,0,0,1,.55.85,2.61,2.61,0,0,1,0,2,2.5,2.5,0,0,1-.55.84,2.56,2.56,0,0,1-.83.55,2.5,2.5,0,0,1-1,.19Z" transform="translate(0.02 -0.04)"></path></g></g></g></svg>