<svg width="24" height="25" viewBox="0 0 24 25" fill="none" xmlns="http://www.w3.org/2000/svg">
<path d="M21.7097 9.20968C22.9597 7.95968 22.3897 6.49968 21.7097 5.78968L18.7097 2.78968C17.4497 1.53968 15.9997 2.10968 15.2897 2.78968L13.5897 4.49968H10.9997C9.09969 4.49968 7.99968 5.49968 7.43968 6.64968L2.99968 11.0897V15.0897L2.28968 15.7897C1.03968 17.0497 1.60968 18.4997 2.28968 19.2097L5.28968 22.2097C5.82968 22.7497 6.40968 22.9497 6.95968 22.9497C7.66968 22.9497 8.31968 22.5997 8.70968 22.2097L11.4097 19.4997H14.9997C16.6997 19.4997 17.5597 18.4397 17.8697 17.3997C18.9997 17.0997 19.6197 16.2397 19.8697 15.3997C21.4197 14.9997 21.9997 13.5297 21.9997 12.4997V9.49968H21.4097L21.7097 9.20968ZM19.9997 12.4997C19.9997 12.9497 19.8097 13.4997 18.9997 13.4997H17.9997V14.4997C17.9997 14.9497 17.8097 15.4997 16.9997 15.4997H15.9997V16.4997C15.9997 16.9497 15.8097 17.4997 14.9997 17.4997H10.5897L7.30968 20.7797C6.99968 21.0697 6.81968 20.8997 6.70968 20.7897L3.71968 17.8097C3.42968 17.4997 3.59968 17.3197 3.70968 17.2097L4.99968 15.9097V11.9097L6.99968 9.90968V11.4997C6.99968 12.7097 7.79969 14.4997 9.99969 14.4997C12.1997 14.4997 12.9997 12.7097 12.9997 11.4997H19.9997V12.4997ZM20.2897 7.78968L18.5897 9.49968H10.9997V11.4997C10.9997 11.9497 10.8097 12.4997 9.99969 12.4997C9.18969 12.4997 8.99968 11.9497 8.99968 11.4997V8.49968C8.99968 8.03968 9.16969 6.49968 10.9997 6.49968H14.4097L16.6897 4.21968C16.9997 3.92968 17.1797 4.09968 17.2897 4.20968L20.2797 7.18968C20.5697 7.49968 20.3997 7.67968 20.2897 7.78968Z" fill="#5F4AEA"/>
</svg>
