<svg width="24" height="25" viewBox="0 0 24 25" fill="none" xmlns="http://www.w3.org/2000/svg">
<path d="M16.905 13.3621C19.0988 14.1101 21 15.3341 21 17.0341V22.7008H3V17.0341C3 15.3341 4.90125 14.1101 7.10625 13.3621L7.80375 14.7674L8.0625 15.3341C6.375 15.8554 5.1375 16.6034 5.1375 17.0341V20.5474H9.885L10.875 14.8014L9.8175 12.6708C10.515 12.5914 11.2463 12.5348 12 12.5348C12.7537 12.5348 13.485 12.5914 14.1825 12.6708L13.125 14.8014L14.115 20.5474H18.8625V17.0341C18.8625 16.6034 17.625 15.8554 15.9375 15.3341L16.1962 14.7674L16.905 13.3621ZM12 4.56745C10.7625 4.56745 9.75 5.58745 9.75 6.83411C9.75 8.08078 10.7625 9.10078 12 9.10078C13.2375 9.10078 14.25 8.08078 14.25 6.83411C14.25 5.58745 13.2375 4.56745 12 4.56745ZM12 11.3674C9.51375 11.3674 7.5 9.33878 7.5 6.83411C7.5 4.32945 9.51375 2.30078 12 2.30078C14.4862 2.30078 16.5 4.32945 16.5 6.83411C16.5 9.33878 14.4862 11.3674 12 11.3674Z" fill="#5F4AEA"/>
</svg>
