<svg width="24" height="25" viewBox="0 0 24 25" fill="none" xmlns="http://www.w3.org/2000/svg">
<path d="M2 3.5H10C10 2.96957 10.2107 2.46086 10.5858 2.08579C10.9609 1.71071 11.4696 1.5 12 1.5C12.5304 1.5 13.0391 1.71071 13.4142 2.08579C13.7893 2.46086 14 2.96957 14 3.5H22V5.5H21V16.5H15.25L17 22.5H15L13.25 16.5H10.75L9 22.5H7L8.75 16.5H3V5.5H2V3.5ZM5 5.5V14.5H19V5.5H5ZM11.85 12.35C11.76 12.44 11.64 12.5 11.5 12.5C11.3674 12.5 11.2402 12.4473 11.1464 12.3536C11.0527 12.2598 11 12.1326 11 12V8C11 7.86739 11.0527 7.74021 11.1464 7.64645C11.2402 7.55268 11.3674 7.5 11.5 7.5C11.64 7.5 11.76 7.56 11.85 7.65L13.25 9.04C13.57 9.36 13.89 9.68 13.89 10C13.89 10.32 13.57 10.64 13.25 10.96L11.85 12.35Z" fill="#5F4AEA"/>
</svg>
