<svg width="93" height="37" viewBox="0 0 93 37" fill="none" xmlns="http://www.w3.org/2000/svg">
<rect x="0.5" y="9.5" width="91.9227" height="27" rx="13.5" fill="#5F4AEA"/>
<rect x="0.5" y="9.5" width="91.9227" height="27" rx="13.5" fill="url(#paint0_linear_2703_2648)"/>
<rect x="0.5" y="9.5" width="91.9227" height="27" rx="13.5" stroke="#FBD984"/>
<path d="M12.0626 24.1528C12.0626 24.1528 10.976 16.2434 18.6559 16.0053C27.0328 15.7456 27.6519 25.0965 23.1366 28.7027C19.2317 31.8024 12.1189 28.9754 12.0626 24.1528Z" fill="#F2BE75"/>
<path d="M20.6858 16.1352C20.5603 16.1352 20.4347 16.0876 20.3048 16.0703C16.1489 20.9536 16.7073 26.4603 17.6684 29.8413C17.9022 29.8889 18.1403 29.9193 18.374 29.9452C15.7073 23.0143 19.4217 17.6937 20.6858 16.1352Z" fill="#FBF8EC"/>
<path d="M22.0847 16.5381C21.9418 16.4818 21.7946 16.4256 21.6517 16.3779C16.7988 21.6162 18.275 28.0883 18.8551 29.9801C19.024 29.9801 19.1928 29.9801 19.3616 29.9801C17.2577 22.9626 19.959 18.6637 22.0847 16.5381Z" fill="#FBF8EC"/>
<path d="M16.7039 16.2476C16.4918 16.3038 16.271 16.3601 16.0935 16.4294C13.4311 20.4122 13.3402 24.737 13.851 27.9492L14.0199 28.0921C13.7947 25.5552 13.8164 20.2823 16.7039 16.2476Z" fill="#FBF8EC"/>
<path d="M18.3313 16.0005C18.0672 16.0005 17.8204 16.0438 17.578 16.0784C16.1812 17.8629 15.229 19.954 14.7999 22.1791C14.3709 24.4042 14.4773 26.6995 15.1104 28.8754C15.2273 28.9446 15.3485 29.0096 15.4697 29.0745C13.8982 22.0743 16.5303 17.914 18.3313 16.0005Z" fill="#FBF8EC"/>
<path opacity="0.24" d="M14.7339 22.0445C14.7339 22.0445 13.9763 16.5508 19.3098 16.382C25.1281 16.2045 25.5567 22.6939 22.4224 25.2005C19.7167 27.365 14.7772 25.4039 14.7339 22.0445Z" fill="#FBF8EC"/>
<path opacity="0.47" d="M19.1363 17.3825C21.0109 16.0838 24.3789 18.8198 22.0066 20.0666C19.6342 21.3134 17.2575 18.6943 19.1363 17.3825Z" fill="#FBF8EC"/>
<g style="mix-blend-mode:multiply" opacity="0.37">
<path d="M23.1282 28.6852C24.3842 27.6447 25.2709 26.2266 25.6564 24.6418C18.7904 29.958 14.2491 25.7198 12.0282 22.4253C11.9833 23.0021 11.992 23.5818 12.0542 24.157C12.1192 28.9753 19.2319 31.8022 23.1282 28.6852Z" fill="#C1A362"/>
</g>
<path d="M34.9309 28V18.158H36.8349V28H34.9309ZM40.2547 24.346V22.792H42.5367C42.8353 22.792 43.106 22.7313 43.3487 22.61C43.5913 22.4887 43.7827 22.316 43.9227 22.092C44.0627 21.8587 44.1327 21.5787 44.1327 21.252C44.1327 20.9347 44.0627 20.6593 43.9227 20.426C43.7827 20.1927 43.5913 20.0153 43.3487 19.894C43.106 19.7727 42.8353 19.712 42.5367 19.712H40.2547V18.158H42.7327C43.358 18.158 43.918 18.284 44.4127 18.536C44.9167 18.788 45.3133 19.1473 45.6027 19.614C45.892 20.0713 46.0367 20.6173 46.0367 21.252C46.0367 21.8867 45.892 22.4373 45.6027 22.904C45.3133 23.3613 44.9167 23.716 44.4127 23.968C43.918 24.22 43.358 24.346 42.7327 24.346H40.2547ZM38.8547 28V18.158H40.7587V28H38.8547ZM47.3859 28V18.158H49.2899V28H47.3859ZM48.7859 28V26.306H53.7979V28H48.7859ZM56.6657 28L60.6277 18.158H62.1817L66.1297 28H64.0997L61.0477 19.922H61.7477L58.6537 28H56.6657ZM58.7657 26.166V24.57H64.0577V26.166H58.7657ZM69.6924 28.14C69.0671 28.14 68.5071 27.986 68.0124 27.678C67.5177 27.37 67.1257 26.95 66.8364 26.418C66.5564 25.886 66.4164 25.2887 66.4164 24.626C66.4164 23.954 66.5564 23.352 66.8364 22.82C67.1257 22.288 67.5131 21.868 67.9984 21.56C68.4931 21.252 69.0577 21.098 69.6924 21.098C70.1777 21.098 70.6117 21.196 70.9944 21.392C71.3864 21.588 71.6991 21.8633 71.9324 22.218C72.1751 22.5633 72.3057 22.9553 72.3244 23.394V25.802C72.3057 26.2407 72.1797 26.6373 71.9464 26.992C71.7131 27.3467 71.4004 27.6267 71.0084 27.832C70.6164 28.0373 70.1777 28.14 69.6924 28.14ZM70.0004 26.446C70.3457 26.446 70.6444 26.3713 70.8964 26.222C71.1577 26.0633 71.3584 25.8487 71.4984 25.578C71.6477 25.298 71.7224 24.976 71.7224 24.612C71.7224 24.2573 71.6477 23.9447 71.4984 23.674C71.3584 23.394 71.1577 23.1793 70.8964 23.03C70.6444 22.8713 70.3504 22.792 70.0144 22.792C69.6691 22.792 69.3657 22.8713 69.1044 23.03C68.8524 23.1887 68.6517 23.4033 68.5024 23.674C68.3624 23.9447 68.2924 24.2573 68.2924 24.612C68.2924 24.976 68.3624 25.298 68.5024 25.578C68.6517 25.8487 68.8571 26.0633 69.1184 26.222C69.3797 26.3713 69.6737 26.446 70.0004 26.446ZM73.4444 28H71.6244V26.18L71.9184 24.528L71.6104 22.904V17.878H73.4444V28ZM77.3909 28.154C77.0082 28.154 76.6302 28.1027 76.2569 28C75.8929 27.8973 75.5569 27.7573 75.2489 27.58C74.9409 27.3933 74.6749 27.1693 74.4509 26.908L75.5429 25.802C75.7762 26.0633 76.0469 26.2593 76.3549 26.39C76.6629 26.5207 77.0035 26.586 77.3769 26.586C77.6755 26.586 77.8995 26.544 78.0489 26.46C78.2075 26.376 78.2869 26.25 78.2869 26.082C78.2869 25.8953 78.2029 25.7507 78.0349 25.648C77.8762 25.5453 77.6662 25.4613 77.4049 25.396C77.1435 25.3213 76.8682 25.242 76.5789 25.158C76.2989 25.0647 76.0282 24.948 75.7669 24.808C75.5055 24.6587 75.2909 24.458 75.1229 24.206C74.9642 23.9447 74.8849 23.6087 74.8849 23.198C74.8849 22.7687 74.9875 22.3953 75.1929 22.078C75.4075 21.7607 75.7109 21.5133 76.1029 21.336C76.4949 21.1587 76.9569 21.07 77.4889 21.07C78.0489 21.07 78.5529 21.168 79.0009 21.364C79.4582 21.56 79.8362 21.854 80.1349 22.246L79.0289 23.352C78.8235 23.1 78.5902 22.918 78.3289 22.806C78.0769 22.694 77.8015 22.638 77.5029 22.638C77.2322 22.638 77.0222 22.68 76.8729 22.764C76.7329 22.848 76.6629 22.9647 76.6629 23.114C76.6629 23.282 76.7422 23.4127 76.9009 23.506C77.0689 23.5993 77.2835 23.6833 77.5449 23.758C77.8062 23.8233 78.0769 23.9027 78.3569 23.996C78.6462 24.08 78.9169 24.2013 79.1689 24.36C79.4302 24.5187 79.6402 24.7287 79.7989 24.99C79.9669 25.2513 80.0509 25.5873 80.0509 25.998C80.0509 26.6607 79.8129 27.188 79.3369 27.58C78.8609 27.9627 78.2122 28.154 77.3909 28.154Z" fill="#FBD984"/>
<g filter="url(#filter0_f_2703_2648)">
<rect x="56.9897" y="8.1001" width="12" height="3" rx="1.5" fill="white"/>
</g>
<rect x="34" y="8.6001" width="40" height="2" rx="1" fill="url(#paint1_linear_2703_2648)"/>
<defs>
<filter id="filter0_f_2703_2648" x="48.9897" y="0.100098" width="28" height="19" filterUnits="userSpaceOnUse" color-interpolation-filters="sRGB">
<feFlood flood-opacity="0" result="BackgroundImageFix"/>
<feBlend mode="normal" in="SourceGraphic" in2="BackgroundImageFix" result="shape"/>
<feGaussianBlur stdDeviation="4" result="effect1_foregroundBlur_2703_2648"/>
</filter>
<linearGradient id="paint0_linear_2703_2648" x1="46" y1="37" x2="46" y2="10" gradientUnits="userSpaceOnUse">
<stop stop-color="#4E3BC9"/>
<stop offset="1" stop-color="#5F4AEA"/>
</linearGradient>
<linearGradient id="paint1_linear_2703_2648" x1="34" y1="9.6001" x2="74" y2="9.6001" gradientUnits="userSpaceOnUse">
<stop stop-color="#D2C4AA" stop-opacity="0"/>
<stop offset="0.5049" stop-color="#FFFCF4"/>
<stop offset="1" stop-color="#E2E2E2" stop-opacity="0"/>
</linearGradient>
</defs>
</svg>
